<?xml version="1.0" standalone="no"?>
<!DOCTYPE svg PUBLIC "-//W3C//DTD SVG 1.1//EN" "http://www.w3.org/Graphics/SVG/1.1/DTD/svg11.dtd" >
<svg xmlns="http://www.w3.org/2000/svg" xmlns:xlink="http://www.w3.org/1999/xlink" version="1.1">
<metadata>
Created by FontForge 20170731 at Fri Nov 13 01:22:19 2020
 By Aleksey,,,
Copyright (c) 2011 Swiss Typefaces. All rights reserved.
</metadata>
<defs>
<font id="SimplonNorm-Medium" horiz-adv-x="1136" >
  <font-face 
    font-family="Simplon Norm"
    font-weight="500"
    font-stretch="normal"
    units-per-em="2048"
    panose-1="2 11 6 0 3 0 0 0 0 0"
    ascent="1638"
    descent="-410"
    x-height="1057"
    cap-height="1434"
    bbox="-473 -549 2335 1790"
    underline-thickness="163"
    underline-position="-367"
    unicode-range="U+0020-2212"
  />
<missing-glyph horiz-adv-x="1024" 
d="M907 0h-792v1434h792v-1434zM510 836l217 487h-434zM795 197v1038l-232 -518zM227 201l230 516l-230 514v-1030zM293 111h434l-217 485z" />
    <glyph glyph-name=".notdef" horiz-adv-x="1024" 
d="M907 0h-792v1434h792v-1434zM510 836l217 487h-434zM795 197v1038l-232 -518zM227 201l230 516l-230 514v-1030zM293 111h434l-217 485z" />
    <glyph glyph-name=".null" horiz-adv-x="0" 
 />
    <glyph glyph-name="nonmarkingreturn" horiz-adv-x="682" 
 />
    <glyph glyph-name="space" unicode=" " horiz-adv-x="448" 
 />
    <glyph glyph-name="exclam" unicode="!" horiz-adv-x="598" 
d="M406 1434v-1004h-216v1004h216zM162 0v274h274v-274h-274z" />
    <glyph glyph-name="quotedbl" unicode="&#x22;" horiz-adv-x="948" 
d="M367 975h-215v459h215v-459zM797 975h-215v459h215v-459z" />
    <glyph glyph-name="numbersign" unicode="#" horiz-adv-x="1433" 
d="M203 1038h229l98 396h205l-98 -396h319l99 396h205l-99 -396h135v-186h-182l-67 -270h184v-187h-230l-98 -395h-205l99 395h-320l-98 -395h-205l98 395h-135v187h180l68 270h-182v186zM590 852l-68 -270h320l67 270h-319z" />
    <glyph glyph-name="dollar" unicode="$" horiz-adv-x="1058" 
d="M489 -205v187q-188 12 -300 140.5t-117 321.5h215q6 -109 58 -176t144 -80v437l-100 39q-295 118 -295 397q0 176 108.5 277.5t286.5 113.5v186h89v-186q164 -13 263 -120.5t111 -280.5h-215q-11 77 -51.5 128t-107.5 64v-418l106 -41q156 -61 223.5 -162t67.5 -249
q0 -172 -100 -276.5t-297 -114.5v-187h-89zM584 588l-6 2v-402q89 10 135.5 59t46.5 126q0 69 -39.5 122.5t-136.5 92.5zM309 1061q0 -78 42.5 -121t121.5 -74l16 -6v385q-89 -10 -134.5 -59.5t-45.5 -124.5z" />
    <glyph glyph-name="percent" unicode="%" horiz-adv-x="1792" 
d="M1292 1434h195l-985 -1434h-195zM410 743q53 0 80.5 30.5t27.5 80.5v328q0 50 -27.5 80t-80.5 30t-81 -30.5t-28 -79.5v-328q0 -50 28 -80.5t81 -30.5zM410 590q-77 0 -133.5 24t-88 67t-46.5 94t-15 112v262q0 61 15 112t46.5 94t88 67t133.5 24t133.5 -24t88 -67
t46 -94t14.5 -112v-262q0 -61 -14.5 -112t-46 -94t-88 -67t-133.5 -24zM1382 141q53 0 81 30.5t28 80.5v328q0 49 -28 79.5t-81 30.5t-80.5 -30t-27.5 -80v-328q0 -50 27.5 -80.5t80.5 -30.5zM1382 -12q-77 0 -133.5 24t-88 67t-46 94t-14.5 112v262q0 61 14.5 112t46 94
t88 67t133.5 24t133.5 -24t88 -67t46.5 -94t15 -112v-262q0 -61 -15 -112t-46.5 -94t-88 -67t-133.5 -24z" />
    <glyph glyph-name="ampersand" unicode="&#x26;" horiz-adv-x="1234" 
d="M1231 612h-252v-612h-449q-61 0 -120 13t-116 44.5t-100 77t-69.5 117t-26.5 158.5q0 102 45.5 183.5t124.5 123.5q-77 42 -123.5 123t-46.5 182q0 92 28.5 165t73.5 118t104.5 75t117.5 42t117 12h225v-207h-225q-102 0 -164 -54.5t-62 -150.5q0 -94 60.5 -148.5
t165.5 -54.5h225v164h215v-164h252v-207zM530 207h234v405h-234q-101 0 -159 -52.5t-58 -149.5t58 -150t159 -53z" />
    <glyph glyph-name="quotesingle" unicode="'" horiz-adv-x="518" 
d="M367 975h-215v459h215v-459z" />
    <glyph glyph-name="parenleft" unicode="(" horiz-adv-x="598" 
d="M184 -43v1225q0 127 60.5 189.5t191.5 62.5h94v-193h-49q-60 0 -81 -22.5t-21 -81.5v-1135q0 -59 21 -81.5t81 -22.5h49v-193h-94q-131 0 -191.5 62.5t-60.5 189.5z" />
    <glyph glyph-name="parenright" unicode=")" horiz-adv-x="598" 
d="M414 1182v-1225q0 -127 -60.5 -189.5t-191.5 -62.5h-94v193h49q60 0 81 22.5t21 81.5v1135q0 59 -21 81.5t-81 22.5h-49v193h94q131 0 191.5 -62.5t60.5 -189.5z" />
    <glyph glyph-name="asterisk" unicode="*" horiz-adv-x="1034" 
d="M182 1257l242 -77v254h186v-254l242 77l57 -176l-241 -77l149 -207l-149 -109l-150 205l-151 -205l-150 109l150 207l-242 77z" />
    <glyph glyph-name="plus" unicode="+" horiz-adv-x="1142" 
d="M666 1014v-346h346v-187h-346v-348h-187v348h-348v187h348v346h187z" />
    <glyph glyph-name="comma" unicode="," horiz-adv-x="598" 
d="M162 0v274h274v-274l-80 -213h-161l79 213h-112z" />
    <glyph glyph-name="hyphen" unicode="-" horiz-adv-x="794" 
d="M100 668h594v-187h-594v187z" />
    <glyph glyph-name="period" unicode="." horiz-adv-x="598" 
d="M162 0v274h274v-274h-274z" />
    <glyph glyph-name="slash" unicode="/" horiz-adv-x="747" 
d="M-23 0l580 1434h213l-580 -1434h-213z" />
    <glyph glyph-name="zero" unicode="0" horiz-adv-x="1118" 
d="M784 422v590q0 117 -60.5 176t-164.5 59t-164.5 -59t-60.5 -176v-590q0 -118 60.5 -177t164.5 -59t164.5 59t60.5 177zM119 418v598q0 101 28.5 179.5t73 126t104.5 78.5t117 42.5t117 11.5t117 -11.5t117 -42.5t104.5 -78.5t73 -126t28.5 -179.5v-598
q0 -101 -28.5 -179.5t-73 -126t-104.5 -78.5t-117 -42.5t-117 -11.5t-117 11.5t-117 42.5t-104.5 78.5t-73 126t-28.5 179.5z" />
    <glyph glyph-name="one" unicode="1" horiz-adv-x="735" 
d="M358 1434h215v-1434h-215v1165l-274 -235v268z" />
    <glyph glyph-name="two" unicode="2" horiz-adv-x="1062" 
d="M86 993v23q0 101 28.5 179.5t73 126t104.5 78.5t117 42.5t117 11.5t117 -11.5t117 -41.5t105 -76t73.5 -121.5t28.5 -171.5q0 -125 -48 -219.5t-157 -208.5l-383 -397h588v-207h-881v207l514 532q78 81 115 147.5t37 141.5q0 107 -61.5 163t-164.5 56q-104 0 -164.5 -59
t-60.5 -176v-19h-215z" />
    <glyph glyph-name="three" unicode="3" horiz-adv-x="1075" 
d="M532 186q101 0 159.5 53.5t58.5 155.5q0 101 -63 161t-163 60h-118v199h118q105 0 165.5 57t60.5 152q0 98 -63 160.5t-163 62.5q-101 0 -161 -55.5t-64 -165.5v-2h-215v2q2 97 31.5 173.5t74 123t104 77t116 42.5t114.5 12t116.5 -13.5t118 -46.5t104.5 -80.5
t73.5 -122.5t28.5 -167q0 -101 -46.5 -183t-123.5 -124q77 -41 123.5 -129.5t46.5 -192.5q0 -88 -25 -159.5t-66 -118t-96.5 -78.5t-115 -45.5t-123.5 -13.5q-62 0 -121 11.5t-120.5 42t-107 77.5t-75 123.5t-31.5 173.5v2h215v-2q4 -109 67.5 -165.5t165.5 -56.5z" />
    <glyph glyph-name="four" unicode="4" horiz-adv-x="1064" 
d="M1020 354h-150v-354h-215v354h-637v199l637 881h215v-881h150v-199zM268 553h387v534z" />
    <glyph glyph-name="five" unicode="5" horiz-adv-x="1077" 
d="M784 395v86q0 118 -60.5 177t-164.5 59q-75 0 -129 -32.5t-78 -94.5h-215v844h807v-207h-592v-377q35 32 99.5 53t130.5 21q55 0 108.5 -11.5t110.5 -42.5t100 -78.5t70.5 -127t27.5 -179.5v-90q0 -88 -25 -159.5t-66 -118t-96.5 -78.5t-115 -45.5t-123.5 -13.5
q-62 0 -121 11.5t-120 42t-106.5 77.5t-75 123.5t-31.5 173.5v2h215v-2q4 -109 67.5 -165.5t165.5 -56.5q101 0 159 53.5t58 155.5z" />
    <glyph glyph-name="six" unicode="6" horiz-adv-x="1105" 
d="M784 1024v2q-4 110 -64 165.5t-161 55.5q-104 0 -164.5 -59t-60.5 -176v-176q39 33 103.5 53t135.5 20q53 0 107 -11.5t112.5 -42.5t103.5 -78t74 -126.5t29 -179.5v-53q0 -101 -28.5 -179.5t-73 -126t-104.5 -78.5t-117 -42.5t-117 -11.5t-117 11.5t-117 42.5
t-104.5 78.5t-73 126t-28.5 179.5v598q0 101 28.5 179.5t73 126t104.5 78.5t117 42.5t117 11.5q59 0 115.5 -11.5t116 -42t104 -77t73.5 -123.5t31 -174v-2h-215zM784 422v45q0 117 -60.5 176t-164.5 59t-164.5 -59t-60.5 -176v-45q0 -118 60.5 -177t164.5 -59t164.5 59
t60.5 177z" />
    <glyph glyph-name="seven" unicode="7" horiz-adv-x="929" 
d="M893 1227l-442 -1227h-228l443 1227h-641v207h868v-207z" />
    <glyph glyph-name="eight" unicode="8" horiz-adv-x="1101" 
d="M551 -20q-58 0 -116 12.5t-117.5 43.5t-104.5 77.5t-73.5 120.5t-28.5 167q0 200 151 320q-72 62 -104.5 136.5t-32.5 178.5q0 91 27 164.5t70 120t100.5 77.5t114 43.5t114.5 12.5t114.5 -12.5t114 -43.5t100.5 -77.5t70 -120t27 -164.5q0 -104 -32.5 -178.5
t-104.5 -136.5q151 -120 151 -320q0 -93 -28.5 -167t-73.5 -120.5t-104.5 -77.5t-117.5 -43.5t-116 -12.5zM326 408q0 -109 61 -164.5t164 -55.5q102 0 163.5 56.5t61.5 163.5q0 102 -62.5 160.5t-162.5 58.5t-162.5 -58.5t-62.5 -160.5zM762 1032q0 101 -60 158t-155 57
q-93 0 -150 -56.5t-57 -158.5t57 -158.5t150 -56.5q95 0 155 57t60 158z" />
    <glyph glyph-name="nine" unicode="9" horiz-adv-x="1105" 
d="M106 410h216v-2q4 -110 64 -166t161 -56q104 0 164.5 59t60.5 177v176q-39 -33 -104 -53.5t-136 -20.5q-54 0 -108.5 11.5t-113 42.5t-102.5 78.5t-73 127t-29 179.5v53q0 101 28.5 179.5t73 126t105 78.5t117.5 42.5t117 11.5t117 -11.5t117 -42.5t104.5 -78.5t73 -126
t28.5 -179.5v-598q0 -101 -28.5 -179.5t-73 -126t-104.5 -78.5t-117 -42.5t-117 -11.5q-59 0 -115.5 11.5t-116 42t-104.5 77t-74 123.5t-31 174v2zM322 1012v-45q0 -118 60.5 -177t164.5 -59t164.5 59t60.5 177v45q0 117 -60.5 176t-164.5 59t-164.5 -59t-60.5 -176z" />
    <glyph glyph-name="colon" unicode=":" horiz-adv-x="598" 
d="M162 782v275h274v-275h-274zM162 0v274h274v-274h-274z" />
    <glyph glyph-name="semicolon" unicode=";" horiz-adv-x="598" 
d="M162 782v275h274v-275h-274zM162 0v274h274v-274l-80 -213h-161l79 213h-112z" />
    <glyph glyph-name="less" unicode="&#x3c;" horiz-adv-x="1142" 
d="M332 530l680 -331v-209l-881 430v221l881 430v-209z" />
    <glyph glyph-name="equal" unicode="=" horiz-adv-x="1142" 
d="M1012 696h-881v187h881v-187zM131 430h881v-186h-881v186z" />
    <glyph glyph-name="greater" unicode="&#x3e;" horiz-adv-x="1142" 
d="M131 199l680 331l-680 332v209l881 -430v-221l-881 -430v209z" />
    <glyph glyph-name="question" unicode="?" horiz-adv-x="1056" 
d="M289 1024h-215v2q2 97 31 174t73.5 123.5t104 77t116 42t115.5 11.5q60 0 117 -11.5t117 -42.5t104.5 -78.5t73 -126t28.5 -179.5q0 -192 -172 -350l-106 -99q-39 -38 -51.5 -58t-12.5 -54v-25h-215v45q0 70 24.5 115.5t100.5 116.5l107 98q110 98 110 207
q0 117 -60.5 176t-164.5 59q-101 0 -161 -55.5t-64 -165.5v-2zM369 0v274h274v-274h-274z" />
    <glyph glyph-name="at" unicode="@" horiz-adv-x="1875" 
d="M1161 672q-7 102 -66.5 154.5t-156.5 52.5q-168 0 -215 -150h-219q14 100 59.5 173t109.5 111t129.5 55t135.5 17q60 0 117 -11.5t117 -42.5t104.5 -78.5t73 -126t28.5 -179.5v-383q0 -45 24 -68.5t62 -23.5t62 23.5t24 68.5v387q0 101 -20.5 187t-55.5 147.5t-84.5 110
t-103 79.5t-115 51t-118.5 28t-115 8q-84 0 -163.5 -16t-163 -59.5t-145 -109.5t-101 -176t-39.5 -250v-245q0 -140 39.5 -250t101 -176t145 -109.5t163 -59.5t163.5 -16q226 0 389 113l103 -170q-208 -135 -492 -135q-77 0 -152 11t-156.5 37.5t-152.5 67.5t-135.5 105.5
t-110.5 146.5t-73 195t-27 246v233q0 133 27 246t73 195t110.5 146.5t135.5 105.5t152.5 67.5t156.5 37.5t152 11t152 -11t156.5 -37.5t152.5 -67.5t135.5 -105.5t110.5 -146.5t73 -195t27 -246v-387q0 -127 -70 -202.5t-207 -75.5q-210 0 -305 120q-100 -120 -315 -120
q-99 0 -178.5 31.5t-131 104t-51.5 177.5q0 102 55 190.5t175 126.5q61 18 140.5 30.5t129 17t174.5 14.5zM883 186q41 0 77 5.5t74.5 21t66 41t45 68.5t17.5 100v59q-122 -9 -178 -14.5t-124.5 -20t-106.5 -36.5q-52 -31 -52 -99q0 -125 181 -125z" />
    <glyph glyph-name="A" unicode="A" horiz-adv-x="1261" 
d="M1020 0l-121 346h-537l-120 -346h-226l502 1434h225l502 -1434h-225zM432 549h397l-198 569z" />
    <glyph glyph-name="B" unicode="B" horiz-adv-x="1263" 
d="M152 0v1434h553q213 0 326.5 -109t113.5 -301q0 -190 -141 -291q176 -106 176 -319q0 -198 -112 -306t-329 -108h-587zM705 1217h-334v-386h334q101 0 159 50t58 143t-58 143t-159 50zM739 614h-368v-397h368q104 0 160.5 51t56.5 148t-56.5 147.5t-160.5 50.5z" />
    <glyph glyph-name="C" unicode="C" horiz-adv-x="1222" 
d="M915 444h220q-12 -213 -151.5 -338.5t-360.5 -125.5q-232 0 -373 137.5t-141 367.5v463q0 231 141.5 368.5t372.5 137.5q221 0 360.5 -125.5t151.5 -339.5h-220q-8 82 -53.5 140t-107 83t-131.5 25q-55 0 -106.5 -17.5t-94.5 -51t-68.5 -91t-25.5 -129.5v-463
q0 -73 25.5 -130t68.5 -90.5t94 -50.5t107 -17q70 0 131.5 25t107 82.5t53.5 139.5z" />
    <glyph glyph-name="D" unicode="D" horiz-adv-x="1288" 
d="M666 0h-514v1434h514q231 0 372.5 -137.5t141.5 -368.5v-422q0 -231 -141.5 -368.5t-372.5 -137.5zM371 217h295q55 0 106.5 17.5t94.5 52t68.5 92.5t25.5 131v414q0 73 -25.5 131t-68.5 92.5t-94.5 52t-106.5 17.5h-295v-1000z" />
    <glyph glyph-name="E" unicode="E" horiz-adv-x="1116" 
d="M371 1217v-386h626v-217h-626v-397h626v-217h-845v1434h845v-217h-626z" />
    <glyph glyph-name="F" unicode="F" horiz-adv-x="1095" 
d="M371 1217v-386h626v-217h-626v-614h-219v1434h845v-217h-626z" />
    <glyph glyph-name="G" unicode="G" horiz-adv-x="1236" 
d="M623 1454q219 0 357 -123t155 -336h-220q-16 118 -100 180t-192 62q-55 0 -106.5 -17.5t-94.5 -51t-68.5 -91t-25.5 -129.5v-463q0 -73 25.5 -130t68.5 -90.5t94 -50.5t107 -17t107 17t94 50.5t68.5 90.5t25.5 130v93h-295v210h514v-303q0 -230 -141 -367.5t-373 -137.5
t-373 137.5t-141 367.5v463q0 231 141.5 368.5t372.5 137.5z" />
    <glyph glyph-name="H" unicode="H" horiz-adv-x="1331" 
d="M961 831v603h219v-1434h-219v614h-590v-614h-219v1434h219v-603h590z" />
    <glyph glyph-name="I" unicode="I" horiz-adv-x="522" 
d="M371 1434v-1434h-219v1434h219z" />
    <glyph glyph-name="J" unicode="J" horiz-adv-x="972" 
d="M16 410h220q5 -99 52 -156t140 -57q95 0 144 60.5t49 162.5v1014h219v-1014q0 -219 -107 -329.5t-305 -110.5q-403 0 -412 430z" />
    <glyph glyph-name="K" unicode="K" horiz-adv-x="1292" 
d="M371 416v-416h-219v1434h219v-701l596 701h270l-502 -590l557 -844h-258l-444 674z" />
    <glyph glyph-name="L" unicode="L" horiz-adv-x="1015" 
d="M152 0v1434h219v-1217h626v-217h-845z" />
    <glyph glyph-name="M" unicode="M" horiz-adv-x="1507" 
d="M754 641l383 793h219v-1434h-217v995l-295 -610h-180l-295 610v-995h-217v1434h219z" />
    <glyph glyph-name="N" unicode="N" horiz-adv-x="1331" 
d="M1180 1434v-1434h-219l-590 1028v-1028h-219v1434h219l590 -1028v1028h219z" />
    <glyph glyph-name="O" unicode="O" horiz-adv-x="1245" 
d="M918 485v463q0 72 -25.5 129.5t-68.5 91t-94.5 51t-106.5 17.5t-106.5 -17.5t-94.5 -51t-68.5 -91t-25.5 -129.5v-463q0 -73 25.5 -130t68.5 -90.5t94 -50.5t107 -17t107 17t94 50.5t68.5 90.5t25.5 130zM109 485v463q0 231 141.5 368.5t372.5 137.5t372.5 -137.5
t141.5 -368.5v-463q0 -230 -141 -367.5t-373 -137.5t-373 137.5t-141 367.5z" />
    <glyph glyph-name="P" unicode="P" horiz-adv-x="1226" 
d="M696 1221h-325v-508h325q132 0 196 71.5t64 182.5t-64 182.5t-196 71.5zM371 496v-496h-219v1434h544q122 0 216 -37t151.5 -102.5t87 -149t29.5 -180.5t-29.5 -180.5t-87 -149t-151.5 -102.5t-216 -37h-325z" />
    <glyph glyph-name="Q" unicode="Q" horiz-adv-x="1267" 
d="M109 485v463q0 231 141.5 368.5t372.5 137.5t372.5 -137.5t141.5 -368.5v-463q0 -176 -86 -303l127 -129l-150 -145l-133 135q-114 -63 -272 -63q-232 0 -373 137.5t-141 367.5zM600 346l150 146l139 -142q29 63 29 135v463q0 72 -25.5 129.5t-68.5 91t-94.5 51
t-106.5 17.5t-106.5 -17.5t-94.5 -51t-68.5 -91t-25.5 -129.5v-463q0 -73 25.5 -130t68.5 -90.5t94 -50.5t107 -17q49 0 108 16z" />
    <glyph glyph-name="R" unicode="R" horiz-adv-x="1249" 
d="M594 616h-223v-616h-219v1434h563q213 0 326.5 -109t113.5 -301q0 -161 -82 -264.5t-239 -132.5l368 -627h-246zM932 1022q0 93 -58 144t-159 51h-344v-390h344q101 0 159 51t58 144z" />
    <glyph glyph-name="S" unicode="S" 
d="M590 -20q-239 0 -375 127.5t-154 336.5h224q23 -121 102 -184t207 -63q111 0 176.5 49t65.5 133q0 81 -48 131t-155 76l-254 61q-140 35 -217.5 141t-77.5 261q0 101 36.5 179.5t100 127t146.5 73.5t180 25q211 0 336.5 -108.5t152.5 -294.5h-223q-23 88 -91.5 137
t-172.5 49q-123 0 -182.5 -50.5t-59.5 -137.5q0 -152 162 -191l246 -59q174 -42 259 -145t85 -279t-125 -285.5t-344 -109.5z" />
    <glyph glyph-name="T" unicode="T" horiz-adv-x="1058" 
d="M1042 1217h-403v-1217h-219v1217h-404v217h1026v-217z" />
    <glyph glyph-name="U" unicode="U" horiz-adv-x="1294" 
d="M942 485v949h219v-949q0 -230 -141 -367.5t-373 -137.5t-373 137.5t-141 367.5v949h219v-949q0 -73 25.5 -130t68.5 -90.5t94 -50.5t107 -17t107 17t94 50.5t68.5 90.5t25.5 130z" />
    <glyph glyph-name="V" unicode="V" horiz-adv-x="1261" 
d="M1245 1434l-502 -1434h-225l-502 1434h226l389 -1119l389 1119h225z" />
    <glyph glyph-name="W" unicode="W" horiz-adv-x="1523" 
d="M1010 0l-248 903l-248 -903h-207l-264 1434h215l182 -1004l219 799h205l219 -799l183 1004h215l-264 -1434h-207z" />
    <glyph glyph-name="X" unicode="X" horiz-adv-x="1253" 
d="M983 0l-356 586l-357 -586h-245l454 741l-424 693h246l326 -535l325 535h246l-424 -693l455 -741h-246z" />
    <glyph glyph-name="Y" unicode="Y" horiz-adv-x="1216" 
d="M1223 1434l-506 -887v-547h-219v547l-504 887h242l372 -660l373 660h242z" />
    <glyph glyph-name="Z" unicode="Z" horiz-adv-x="1198" 
d="M1106 0h-1038v217l761 1000h-751v217h1018v-217l-762 -1000h772v-217z" />
    <glyph glyph-name="bracketleft" unicode="[" horiz-adv-x="598" 
d="M184 -295v1729h346v-193h-151v-1343h151v-193h-346z" />
    <glyph glyph-name="backslash" unicode="\" horiz-adv-x="747" 
d="M190 1434l580 -1434h-213l-580 1434h213z" />
    <glyph glyph-name="bracketright" unicode="]" horiz-adv-x="598" 
d="M414 1434v-1729h-346v193h151v1343h-151v193h346z" />
    <glyph glyph-name="asciicircum" unicode="^" horiz-adv-x="1277" 
d="M938 614l-299 590l-299 -590h-219l416 820h204l416 -820h-219z" />
    <glyph glyph-name="underscore" unicode="_" horiz-adv-x="856" 
d="M-12 -96h880v-187h-880v187z" />
    <glyph glyph-name="grave" unicode="`" horiz-adv-x="632" 
d="M96 1434h277l137 -265h-172z" />
    <glyph glyph-name="a" unicode="a" horiz-adv-x="1112" 
d="M545 879q-81 0 -136.5 -38t-78.5 -112h-219q14 100 59.5 173t109.5 111t129.5 55t135.5 17q60 0 117 -11.5t117 -42.5t104.5 -78.5t73 -126t28.5 -179.5v-647h-215v100q-100 -120 -315 -120q-99 0 -178.5 31.5t-131 104t-51.5 177.5q0 102 55 190.5t175 126.5
q61 18 140.5 30.5t129 17t174.5 14.5v2q-7 101 -66.5 153t-156.5 52zM489 186q41 0 77 5.5t74.5 21t66 41t45.5 68.5t18 100v59q-123 -9 -179 -14.5t-124.5 -20t-106.5 -36.5q-51 -30 -51 -99q0 -125 180 -125z" />
    <glyph glyph-name="b" unicode="b" horiz-adv-x="1134" 
d="M807 422v221q0 117 -60.5 175.5t-164.5 58.5t-165 -58.5t-61 -175.5v-221q0 -117 61 -175.5t165 -58.5t164.5 58.5t60.5 175.5zM1022 647v-229q0 -94 -26.5 -170.5t-69 -125t-98.5 -81.5t-112.5 -47t-113.5 -14q-83 0 -151.5 35t-94.5 85v-100h-215v1434h215v-469
q27 48 95.5 84t150.5 36q57 0 113.5 -14t112.5 -47t98.5 -81.5t69 -125t26.5 -170.5z" />
    <glyph glyph-name="c" unicode="c" horiz-adv-x="1083" 
d="M774 360h217q-8 -87 -39.5 -155t-76 -109.5t-101.5 -68.5t-111 -37t-110 -10q-60 0 -117 11.5t-117 42.5t-104.5 78.5t-73 126t-28.5 179.5v229q0 101 28.5 179.5t73 126t104.5 78.5t117 42.5t117 11.5q56 0 110 -10t111 -37t101.5 -68.5t76 -109.5t39.5 -155h-219
q-17 86 -74 130t-145 44q-104 0 -164.5 -59t-60.5 -177v-221q0 -118 60.5 -177t164.5 -59q88 0 146 44t75 130z" />
    <glyph glyph-name="d" unicode="d" horiz-adv-x="1134" 
d="M328 643v-221q0 -117 57.5 -175.5t153.5 -58.5q106 0 172.5 59t66.5 175v221q0 117 -60.5 175.5t-164.5 58.5t-164.5 -58.5t-60.5 -175.5zM113 418v229q0 94 26.5 170.5t68.5 125t98 81.5t112.5 47t113.5 14q82 0 150.5 -36t95.5 -84v469h215v-1434h-215v100
q-26 -50 -94.5 -85t-151.5 -35q-57 0 -113.5 14t-112.5 47t-98 81.5t-68.5 125t-26.5 170.5z" />
    <glyph glyph-name="e" unicode="e" horiz-adv-x="1095" 
d="M553 186q168 0 215 150h219q-14 -100 -59.5 -173t-109.5 -111t-129.5 -55t-135.5 -17q-60 0 -117 11.5t-117 42.5t-104.5 78.5t-73 126t-28.5 179.5v229q0 101 28.5 179.5t73 126t104.5 78.5t117 42.5t117 11.5t117 -11.5t117 -42.5t104.5 -78.5t73 -126t28.5 -179.5
v-190h-665v-35q0 -118 60.5 -177t164.5 -59zM553 879q-103 0 -164 -58.5t-61 -171.5v-2h450v2q-1 113 -62 171.5t-163 58.5z" />
    <glyph glyph-name="f" unicode="f" horiz-adv-x="686" 
d="M670 1227h-162q-62 0 -80 -20t-18 -81v-69h260v-203h-260v-854h-215v854h-150v203h150v125q0 127 60 189.5t191 62.5h224v-207z" />
    <glyph glyph-name="g" unicode="g" horiz-adv-x="1130" 
d="M549 -190q104 0 164.5 59t60.5 176v117q-26 -50 -94.5 -85.5t-151.5 -35.5q-57 0 -113.5 14t-112.5 47t-98 81.5t-68.5 125t-26.5 170.5v168q0 94 26.5 170.5t68.5 125t98 81.5t112.5 47t113.5 14q82 0 150.5 -36t95.5 -84v92h215v-1016q0 -101 -28.5 -179.5t-73 -126
t-104.5 -78.5t-117 -42.5t-117 -11.5q-55 0 -109 10.5t-111 37.5t-101 68.5t-75.5 108.5t-39.5 152h217q17 -85 74 -127.5t145 -42.5zM324 643v-160q0 -117 60.5 -175t164.5 -58t164.5 58t60.5 175v160q0 117 -60.5 175.5t-164.5 58.5t-164.5 -58.5t-60.5 -175.5z" />
    <glyph glyph-name="h" unicode="h" horiz-adv-x="1148" 
d="M356 643v-643h-215v1434h215v-469q27 48 95.5 84t150.5 36q57 0 113.5 -14t112.5 -47t98.5 -81.5t69 -125t26.5 -170.5v-647h-215v643q0 117 -60.5 175.5t-164.5 58.5t-165 -58.5t-61 -175.5z" />
    <glyph glyph-name="i" unicode="i" horiz-adv-x="497" 
d="M356 1434v-220h-215v220h215zM356 1057v-1057h-215v1057h215z" />
    <glyph glyph-name="j" unicode="j" horiz-adv-x="497" 
d="M356 1434v-220h-215v220h215zM141 -70v1127h215v-1182q0 -127 -60.5 -189.5t-191.5 -62.5h-94v207h33q62 0 80 19.5t18 80.5z" />
    <glyph glyph-name="k" unicode="k" horiz-adv-x="1077" 
d="M356 1434v-807l396 430h260l-381 -414l438 -643h-250l-332 487l-131 -143v-344h-215v1434h215z" />
    <glyph glyph-name="l" unicode="l" horiz-adv-x="557" 
d="M352 1434v-1127q0 -61 18.5 -80.5t80.5 -19.5h32v-207h-94q-131 0 -191.5 62.5t-60.5 189.5v1182h215z" />
    <glyph glyph-name="m" unicode="m" horiz-adv-x="1773" 
d="M1001 643v-643h-215v643q0 116 -59.5 175t-155.5 59t-155.5 -59t-59.5 -175v-643h-215v1057h215v-92q21 43 93 81.5t143 38.5q81 0 167.5 -38.5t135.5 -110.5q51 73 141 111t181 38q61 0 119.5 -14t115.5 -47t100 -81.5t69 -125t26 -170.5v-647h-215v643q0 116 -59.5 175
t-155.5 59t-156 -59t-60 -175z" />
    <glyph glyph-name="n" unicode="n" horiz-adv-x="1148" 
d="M356 643v-643h-215v1057h215v-92q27 48 95.5 84t150.5 36q57 0 113.5 -14t112.5 -47t98.5 -81.5t69 -125t26.5 -170.5v-647h-215v643q0 117 -60.5 175.5t-164.5 58.5t-165 -58.5t-61 -175.5z" />
    <glyph glyph-name="o" unicode="o" horiz-adv-x="1105" 
d="M778 422v221q0 118 -60.5 177t-164.5 59t-164.5 -59t-60.5 -177v-221q0 -118 60.5 -177t164.5 -59t164.5 59t60.5 177zM113 418v229q0 101 28.5 179.5t73 126t104.5 78.5t117 42.5t117 11.5t117 -11.5t117 -42.5t104.5 -78.5t73 -126t28.5 -179.5v-229
q0 -101 -28.5 -179.5t-73 -126t-104.5 -78.5t-117 -42.5t-117 -11.5t-117 11.5t-117 42.5t-104.5 78.5t-73 126t-28.5 179.5z" />
    <glyph glyph-name="p" unicode="p" horiz-adv-x="1134" 
d="M807 422v221q0 117 -60.5 175.5t-164.5 58.5t-165 -58.5t-61 -175.5v-221q0 -117 61 -175.5t165 -58.5t164.5 58.5t60.5 175.5zM1022 647v-229q0 -94 -26.5 -170.5t-69 -125t-98.5 -81.5t-112.5 -47t-113.5 -14q-83 0 -151.5 35t-94.5 85v-477h-215v1434h215v-92
q27 48 95.5 84t150.5 36q57 0 113.5 -14t112.5 -47t98.5 -81.5t69 -125t26.5 -170.5z" />
    <glyph glyph-name="q" unicode="q" horiz-adv-x="1134" 
d="M328 643v-221q0 -117 57.5 -175.5t153.5 -58.5q106 0 172.5 59t66.5 175v221q0 117 -60.5 175.5t-164.5 58.5t-164.5 -58.5t-60.5 -175.5zM113 418v229q0 94 26.5 170.5t68.5 125t98 81.5t112.5 47t113.5 14q82 0 150.5 -36t95.5 -84v92h215v-1434h-215v477
q-26 -50 -94.5 -85t-151.5 -35q-57 0 -113.5 14t-112.5 47t-98 81.5t-68.5 125t-26.5 170.5z" />
    <glyph glyph-name="r" unicode="r" horiz-adv-x="706" 
d="M684 866h-102q-104 0 -165 -58t-61 -175v-633h-215v1057h215v-103q27 48 95.5 84.5t150.5 36.5h82v-209z" />
    <glyph glyph-name="s" unicode="s" horiz-adv-x="987" 
d="M518 -20q-192 0 -317.5 92t-132.5 266h221q11 -75 75.5 -113.5t155.5 -38.5q174 0 174 111q0 49 -34.5 73t-98.5 38l-201 51q-268 64 -268 315q0 150 107 230.5t276 80.5q374 0 406 -337h-226q-11 66 -63.5 98.5t-130.5 32.5q-60 0 -106 -26t-46 -83q0 -42 32 -63.5
t87 -34.5l195 -49q150 -39 219 -112.5t69 -219.5q0 -150 -108 -230.5t-285 -80.5z" />
    <glyph glyph-name="t" unicode="t" horiz-adv-x="735" 
d="M406 854v-547q0 -61 18 -80.5t80 -19.5h162v-207h-224q-131 0 -191.5 62.5t-60.5 189.5v602h-149v203h149v239h216v-239h260v-203h-260z" />
    <glyph glyph-name="u" unicode="u" 
d="M342 1057v-635q0 -117 59 -175.5t160 -58.5t160 58.5t59 175.5v635h215v-1057h-215v100q-26 -50 -94 -85t-151 -35q-56 0 -112 15.5t-110 49.5t-95 84t-66 124.5t-25 164.5v639h215z" />
    <glyph glyph-name="v" unicode="v" horiz-adv-x="974" 
d="M487 305l265 752h223l-381 -1057h-213l-381 1057h223z" />
    <glyph glyph-name="w" unicode="w" horiz-adv-x="1409" 
d="M819 1057l180 -719l177 719h219l-279 -1057h-217l-194 776l-195 -776h-217l-279 1057h219l177 -719l180 719h229z" />
    <glyph glyph-name="x" unicode="x" horiz-adv-x="1007" 
d="M752 0l-248 379l-248 -379h-238l359 543l-342 514h237l232 -352l231 352h238l-342 -514l358 -543h-237z" />
    <glyph glyph-name="y" unicode="y" horiz-adv-x="974" 
d="M975 1057l-469 -1301q-47 -133 -234 -133h-110v207h43q32 0 52 3.5t33 8t23.5 21t16.5 29t18 45.5l29 77l-377 1043h223l264 -752l265 752h223z" />
    <glyph glyph-name="z" unicode="z" horiz-adv-x="921" 
d="M842 854l-506 -651h520v-203h-788v203l505 651h-491v203h760v-203z" />
    <glyph glyph-name="braceleft" unicode="{" horiz-adv-x="663" 
d="M250 -43v412q0 56 -18.5 80t-67.5 24h-66v193h66q49 0 67.5 24t18.5 80v412q0 127 60.5 189.5t191.5 62.5h94v-193h-49q-60 0 -81.5 -23t-21.5 -81v-412q0 -119 -65 -156q65 -37 65 -155v-412q0 -58 21.5 -81t81.5 -23h49v-193h-94q-131 0 -191.5 62.5t-60.5 189.5z" />
    <glyph glyph-name="bar" unicode="|" horiz-adv-x="497" 
d="M346 1434v-1639h-194v1639h194z" />
    <glyph glyph-name="braceright" unicode="}" horiz-adv-x="663" 
d="M414 369v-412q0 -127 -60.5 -189.5t-191.5 -62.5h-94v193h49q60 0 81 22.5t21 81.5v412q0 118 66 155q-66 37 -66 156v412q0 59 -21 81.5t-81 22.5h-49v193h94q131 0 191.5 -62.5t60.5 -189.5v-412q0 -56 18.5 -80t67.5 -24h65v-193h-65q-49 0 -67.5 -24t-18.5 -80z" />
    <glyph glyph-name="asciitilde" unicode="~" horiz-adv-x="1101" 
d="M229 434l-118 131q147 150 280 150q53 0 113.5 -23.5t112.5 -47t85 -23.5q44 0 80.5 20t89.5 74l119 -131q-147 -150 -280 -150q-53 0 -114 23.5t-113 47t-85 23.5q-44 0 -80.5 -20t-89.5 -74z" />
    <glyph glyph-name="uni00A0" unicode="&#xa0;" horiz-adv-x="448" 
 />
    <glyph glyph-name="exclamdown" unicode="&#xa1;" horiz-adv-x="536" 
d="M377 627v-1004h-215v1004h215zM131 782v275h275v-275h-275z" />
    <glyph glyph-name="cent" unicode="&#xa2;" horiz-adv-x="1103" 
d="M784 360h217q-8 -79 -35.5 -142.5t-66 -105.5t-89 -71t-100.5 -42.5t-104 -16.5v-187h-88v187q-58 5 -110 20t-105.5 48t-92 80t-63 121t-24.5 167v229q0 93 24.5 167t63 121t92 80t105.5 48t110 20v187h88v-187q54 -3 104 -16.5t100.5 -42.5t89 -71t66 -105.5
t35.5 -142.5h-219q-13 73 -59 115.5t-117 53.5v-686q152 23 178 172zM338 643v-221q0 -103 48 -162.5t132 -71.5v686q-84 -11 -132 -69.5t-48 -161.5z" />
    <glyph glyph-name="sterling" unicode="&#xa3;" horiz-adv-x="1232" 
d="M121 0v207h49q52 1 67 22t15 78v344h-131v135h131v230q0 101 28.5 179.5t73 126t104.5 78.5t117 42.5t117 11.5t117 -11.5t117.5 -42.5t105 -78.5t73 -126t28.5 -179.5v-4h-215q0 117 -61 176t-165 59t-164.5 -59t-60.5 -176v-226h451v-135h-451v-366q0 -54 -18 -78h684
v-207h-1012z" />
    <glyph glyph-name="currency" unicode="&#xa4;" horiz-adv-x="1460" 
d="M121 182l174 174q-117 152 -117 340t117 340l-174 174l94 97l174 -177q154 119 342 119q190 0 340 -116l174 174l94 -97l-174 -174q119 -154 119 -340q0 -188 -119 -342l174 -172l-94 -96l-174 174q-152 -117 -340 -117q-190 0 -342 117l-174 -174zM385 696
q0 -141 102.5 -243.5t243.5 -102.5t243.5 102.5t102.5 243.5t-102.5 243.5t-243.5 102.5t-243.5 -102.5t-102.5 -243.5z" />
    <glyph glyph-name="yen" unicode="&#xa5;" horiz-adv-x="1302" 
d="M651 770l377 664h238l-430 -752h254v-135h-332v-137h332v-136h-332v-274h-215v274h-332v136h332v137h-332v135h254l-428 752h237z" />
    <glyph glyph-name="brokenbar" unicode="&#xa6;" horiz-adv-x="497" 
d="M152 -205v694h194v-694h-194zM152 739v695h194v-695h-194z" />
    <glyph glyph-name="section" unicode="&#xa7;" horiz-adv-x="1101" 
d="M594 117l-197 69q-49 18 -80.5 32.5t-74 44.5t-67 65.5t-42.5 93t-18 129.5q0 98 43 174.5t123 120.5q-111 96 -111 264q0 150 102 247t275 97q353 0 393 -340h-199q-28 150 -194 150q-75 0 -127.5 -43t-52.5 -115q0 -58 33.5 -99.5t84.5 -60.5l220 -78q50 -19 81 -33
t73.5 -44t67 -65t42.5 -92.5t18 -129.5q0 -211 -168 -299q113 -104 113 -271t-100 -249t-279 -82q-362 0 -403 358h200q10 -78 66 -123t137 -45q84 0 134 35t50 109q0 64 -31.5 107.5t-111.5 72.5zM651 680l-139 49q-96 -6 -148.5 -54t-54.5 -128q0 -65 34 -105t108 -67
l139 -51q96 6 149.5 54t53.5 128q0 65 -34.5 106t-107.5 68z" />
    <glyph glyph-name="dieresis" unicode="&#xa8;" horiz-adv-x="860" 
d="M340 1411v-219h-215v219h215zM735 1411v-219h-215v219h215z" />
    <glyph glyph-name="copyright" unicode="&#xa9;" horiz-adv-x="1634" 
d="M80 717q0 151 58 287.5t156.5 235t235 156.5t287.5 58t287.5 -58t235 -156.5t156.5 -235t58 -287.5t-58 -287.5t-156.5 -235t-235 -156.5t-287.5 -58t-287.5 58t-235 156.5t-156.5 235t-58 287.5zM274 717q0 -148 72 -273.5t197 -198.5t274 -73t274 73t197 198.5
t72 273.5t-72 273.5t-197 198.5t-274 73t-274 -73t-197 -198.5t-72 -273.5zM817 313q-150 0 -228.5 81t-78.5 220v205q0 138 78.5 219.5t228.5 81.5q148 0 226 -77.5t83 -211.5h-176q-5 52 -39.5 83.5t-93.5 31.5q-62 0 -97.5 -34.5t-35.5 -92.5v-205q0 -58 35.5 -93.5
t97.5 -35.5q60 0 94 30.5t39 84.5h176q-5 -133 -83 -210t-226 -77z" />
    <glyph glyph-name="ordfeminine" unicode="&#xaa;" horiz-adv-x="677" 
d="M274 809q-113 0 -171 49.5t-58 132.5q0 71 24 110.5t83 72.5q56 35 284 51q-25 73 -104 73q-73 0 -101 -57h-174q52 209 275 209q77 0 133.5 -24t88 -66.5t46 -93t14.5 -111.5v-334h-174v76q-20 -41 -57.5 -64.5t-108.5 -23.5zM305 956q62 0 98.5 34.5t36.5 80.5v12
q-164 -12 -186 -20q-23 -11 -29 -20.5t-6 -28.5q0 -23 19 -40.5t67 -17.5z" />
    <glyph glyph-name="guillemotleft" unicode="&#xab;" horiz-adv-x="995" 
d="M457 154l-353 309v192l353 310v-258l-168 -148l168 -147v-258zM874 154l-352 309v192l352 310v-258l-167 -148l167 -147v-258z" />
    <glyph glyph-name="logicalnot" unicode="&#xac;" horiz-adv-x="1142" 
d="M131 668h881v-535h-187v348h-694v187z" />
    <glyph glyph-name="uni00AD" unicode="&#xad;" horiz-adv-x="794" 
d="M100 668h594v-187h-594v187z" />
    <glyph glyph-name="registered" unicode="&#xae;" horiz-adv-x="1634" 
d="M80 717q0 151 58 287.5t156.5 235t235 156.5t287.5 58t287.5 -58t235 -156.5t156.5 -235t58 -287.5t-58 -287.5t-156.5 -235t-235 -156.5t-287.5 -58t-287.5 58t-235 156.5t-156.5 235t-58 287.5zM274 717q0 -148 72 -273.5t197 -198.5t274 -73t274 73t197 198.5
t72 273.5t-72 273.5t-197 198.5t-274 73t-274 -73t-197 -198.5t-72 -273.5zM1161 324h-203l-182 311h-67v-311h-174v784h348q122 0 188 -62.5t66 -173.5q0 -87 -42.5 -145.5t-121.5 -81.5zM709 936v-131h180q74 0 74 63q0 68 -74 68h-180z" />
    <glyph glyph-name="overscore" unicode="&#xaf;" horiz-adv-x="897" 
d="M119 1389h659v-175h-659v175z" />
    <glyph glyph-name="degree" unicode="&#xb0;" horiz-adv-x="823" 
d="M92 1124q0 130 95 225t225 95t224.5 -94.5t94.5 -225.5q0 -130 -94.5 -224.5t-224.5 -94.5q-131 0 -225.5 94.5t-94.5 224.5zM260 1124q0 -63 44.5 -108t107.5 -45t107 45t44 108t-44 108.5t-107 45.5t-107.5 -45.5t-44.5 -108.5z" />
    <glyph glyph-name="plusminus" unicode="&#xb1;" horiz-adv-x="1142" 
d="M479 602h-348v186h348v269h187v-269h346v-186h-346v-268h-187v268zM131 186h881v-186h-881v186z" />
    <glyph glyph-name="twosuperior" unicode="&#xb2;" horiz-adv-x="651" 
d="M39 821v154l338 315q34 34 44.5 57t10.5 54q0 50 -27.5 80t-80.5 30q-54 0 -82.5 -30.5t-28.5 -79.5v-12h-174q2 55 18.5 102t48.5 87.5t87.5 63.5t130.5 23q96 0 161.5 -39t93 -96.5t27.5 -126.5q0 -81 -28.5 -135.5t-94.5 -114.5l-192 -178h315v-154h-567z" />
    <glyph glyph-name="threesuperior" unicode="&#xb3;" horiz-adv-x="657" 
d="M322 809q-69 0 -122.5 21t-86 57.5t-50.5 79t-24 92.5h172q5 -43 35 -69.5t80 -26.5q47 0 75.5 25.5t28.5 68.5q0 47 -32 73.5t-87 26.5h-67v156h67q56 0 87.5 21.5t31.5 62.5q0 114 -108 114q-49 0 -77.5 -26.5t-33.5 -69.5h-172q31 250 283 250q74 0 130 -23t88 -61
t48 -82t16 -92q0 -112 -82 -176q36 -25 59 -82.5t23 -106.5q0 -104 -70.5 -168.5t-211.5 -64.5z" />
    <glyph glyph-name="acute" unicode="&#xb4;" horiz-adv-x="632" 
d="M260 1434h277l-242 -265h-172z" />
    <glyph glyph-name="mu" unicode="&#xb5;" horiz-adv-x="1150" 
d="M575 -20q-69 0 -131.5 35.5t-87.5 80.5v-473h-215v1434h215v-635q0 -117 59 -175.5t160 -58.5t160.5 58.5t59.5 175.5v635h215v-1057h-215v96q-25 -45 -88 -80.5t-132 -35.5z" />
    <glyph glyph-name="paragraph" unicode="&#xb6;" horiz-adv-x="1259" 
d="M1098 1434v-1612h-195v1419h-225v-1419h-195v792h-20q-168 0 -288 121t-120 289t120 289t288 121h635z" />
    <glyph glyph-name="middot" unicode="&#xb7;" horiz-adv-x="618" 
d="M172 457v274h274v-274h-274z" />
    <glyph glyph-name="cedilla" unicode="&#xb8;" horiz-adv-x="555" 
d="M100 -324l133 324h177l-78 -324h-232z" />
    <glyph glyph-name="onesuperior" unicode="&#xb9;" horiz-adv-x="454" 
d="M197 821v600l-158 -137v229l158 140h174v-832h-174z" />
    <glyph glyph-name="ordmasculine" unicode="&#xba;" horiz-adv-x="675" 
d="M338 963q53 0 80.5 30t27.5 80v115q0 50 -27.5 80t-80.5 30t-81 -30.5t-28 -79.5v-115q0 -49 28 -79.5t81 -30.5zM338 809q-77 0 -133.5 24t-88 67t-46.5 94t-15 112v49q0 61 15 111.5t46.5 93t88 66.5t133.5 24t133.5 -24t88 -66.5t46.5 -93t15 -111.5v-49
q0 -61 -15 -112t-46.5 -94t-88 -67t-133.5 -24z" />
    <glyph glyph-name="guillemotright" unicode="&#xbb;" horiz-adv-x="995" 
d="M449 463l-353 -309v258l168 147l-168 148v258l353 -310v-192zM866 463l-352 -309v258l168 147l-168 148v258l352 -310v-192z" />
    <glyph glyph-name="onequarter" unicode="&#xbc;" horiz-adv-x="1503" 
d="M279 602v600l-158 -137v229l158 140h174v-832h-174zM1130 1434h195l-985 -1434h-195zM1186 0v180h-355v152l355 499h174v-499h86v-152h-86v-180h-174zM1036 332h150v211z" />
    <glyph glyph-name="onehalf" unicode="&#xbd;" horiz-adv-x="1597" 
d="M279 602v600l-158 -137v229l158 140h174v-832h-174zM1130 1434h195l-985 -1434h-195zM932 0v154l338 315q34 34 44.5 57t10.5 54q0 50 -27.5 80t-80.5 30q-54 0 -82.5 -30.5t-28.5 -79.5v-13h-174q2 55 18.5 102.5t48.5 88t87.5 63.5t130.5 23q96 0 161.5 -39t93 -96.5
t27.5 -126.5q0 -81 -28.5 -135.5t-94.5 -114.5l-192 -178h315v-154h-567z" />
    <glyph glyph-name="threequarters" unicode="&#xbe;" horiz-adv-x="1624" 
d="M362 590q-69 0 -122.5 21t-85.5 57.5t-50 79t-24 92.5h172q5 -43 35.5 -70t79.5 -27q47 0 75.5 26t28.5 69q0 47 -32 73.5t-87 26.5h-67v156h67q56 0 87.5 21.5t31.5 62.5q0 114 -109 114q-49 0 -77 -26.5t-33 -69.5h-172q31 250 282 250q74 0 130.5 -23t88.5 -61t48 -82
t16 -92q0 -112 -82 -176q36 -25 59 -82.5t23 -106.5q0 -104 -71 -168.5t-212 -64.5zM1251 1434h195l-985 -1434h-195zM1307 0v180h-355v152l355 499h174v-499h86v-152h-86v-180h-174zM1157 332h150v211z" />
    <glyph glyph-name="questiondown" unicode="&#xbf;" horiz-adv-x="1019" 
d="M752 33h215q-2 -97 -31 -174t-74 -124t-104.5 -77.5t-116 -42.5t-115.5 -12q-60 0 -117 11.5t-117 42.5t-104.5 78.5t-73 126t-28.5 179.5q0 192 172 350l107 98q38 37 50.5 58t12.5 55v25h215v-45q0 -71 -25.5 -119t-99.5 -113l-106 -98q-111 -99 -111 -207
q0 -117 60.5 -176t164.5 -59q102 0 162 55.5t64 167.5zM389 782v275h275v-275h-275z" />
    <glyph glyph-name="Agrave" unicode="&#xc0;" horiz-adv-x="1261" 
d="M1020 0l-121 346h-537l-120 -346h-226l502 1434h225l502 -1434h-225zM432 549h397l-198 569zM319 1749h281l168 -223h-186z" />
    <glyph glyph-name="Aacute" unicode="&#xc1;" horiz-adv-x="1261" 
d="M1020 0l-121 346h-537l-120 -346h-226l502 1434h225l502 -1434h-225zM432 549h397l-198 569zM649 1749h281l-262 -223h-187z" />
    <glyph glyph-name="Acircumflex" unicode="&#xc2;" horiz-adv-x="1261" 
d="M1020 0l-121 346h-537l-120 -346h-226l502 1434h225l502 -1434h-225zM432 549h397l-198 569zM721 1526l-90 73l-90 -73h-267l271 223h172l270 -223h-266z" />
    <glyph glyph-name="Atilde" unicode="&#xc3;" horiz-adv-x="1261" 
d="M1020 0l-121 346h-537l-120 -346h-226l502 1434h225l502 -1434h-225zM432 549h397l-198 569zM508 1759q67 0 106 -16l78 -33q28 -12 41 -12q42 0 62 57h186q-12 -72 -39.5 -122.5t-63 -73.5t-65 -32t-59.5 -9q-68 0 -107 16l-78 33q-28 12 -41 12q-41 0 -61 -57h-186
q12 72 39.5 122.5t63 73.5t65 32t59.5 9z" />
    <glyph glyph-name="Adieresis" unicode="&#xc4;" horiz-adv-x="1261" 
d="M1020 0l-121 346h-537l-120 -346h-226l502 1434h225l502 -1434h-225zM432 549h397l-198 569zM545 1747v-219h-219v219h219zM936 1747v-219h-219v219h219z" />
    <glyph glyph-name="Aring" unicode="&#xc5;" horiz-adv-x="1261" 
d="M1020 0l-121 346h-537l-120 -346h-226l502 1434h225l502 -1434h-225zM432 549h397l-198 569zM479 1636q0 63 44.5 108.5t107.5 45.5t108 -45.5t45 -108.5t-45 -107t-108 -44t-107.5 44t-44.5 107zM588 1636q0 -19 12 -31t31 -12t31 12t12 31t-12 31t-31 12t-31 -12
t-12 -31z" />
    <glyph glyph-name="AE" unicode="&#xc6;" horiz-adv-x="1761" 
d="M485 549h312v676zM1642 0h-845v346h-404l-160 -346h-231l660 1434h980v-217h-626v-386h626v-217h-626v-397h626v-217z" />
    <glyph glyph-name="Ccedilla" unicode="&#xc7;" horiz-adv-x="1222" 
d="M915 444h220q-12 -213 -151.5 -338.5t-360.5 -125.5q-232 0 -373 137.5t-141 367.5v463q0 231 141.5 368.5t372.5 137.5q221 0 360.5 -125.5t151.5 -339.5h-220q-8 82 -53.5 140t-107 83t-131.5 25q-55 0 -106.5 -17.5t-94.5 -51t-68.5 -91t-25.5 -129.5v-463
q0 -73 25.5 -130t68.5 -90.5t94 -50.5t107 -17q70 0 131.5 25t107 82.5t53.5 139.5zM414 -324l123 324h190l-78 -324h-235z" />
    <glyph glyph-name="Egrave" unicode="&#xc8;" horiz-adv-x="1116" 
d="M371 1217v-386h626v-217h-626v-397h626v-217h-845v1434h845v-217h-626zM262 1749h281l168 -223h-187z" />
    <glyph glyph-name="Eacute" unicode="&#xc9;" horiz-adv-x="1116" 
d="M371 1217v-386h626v-217h-626v-397h626v-217h-845v1434h845v-217h-626zM592 1749h280l-262 -223h-186z" />
    <glyph glyph-name="Ecircumflex" unicode="&#xca;" horiz-adv-x="1116" 
d="M371 1217v-386h626v-217h-626v-397h626v-217h-845v1434h845v-217h-626zM664 1526l-91 73l-90 -73h-266l270 223h172l271 -223h-266z" />
    <glyph glyph-name="Edieresis" unicode="&#xcb;" horiz-adv-x="1116" 
d="M371 1217v-386h626v-217h-626v-397h626v-217h-845v1434h845v-217h-626zM487 1747v-219h-219v219h219zM879 1747v-219h-220v219h220z" />
    <glyph glyph-name="Igrave" unicode="&#xcc;" horiz-adv-x="522" 
d="M371 1434v-1434h-219v1434h219zM-49 1749h280l168 -223h-186z" />
    <glyph glyph-name="Iacute" unicode="&#xcd;" horiz-adv-x="522" 
d="M371 1434v-1434h-219v1434h219zM281 1749h280l-262 -223h-186z" />
    <glyph glyph-name="Icircumflex" unicode="&#xce;" horiz-adv-x="522" 
d="M371 1434v-1434h-219v1434h219zM352 1526l-90 73l-90 -73h-266l270 223h172l270 -223h-266z" />
    <glyph glyph-name="Idieresis" unicode="&#xcf;" horiz-adv-x="522" 
d="M371 1434v-1434h-219v1434h219zM176 1747v-219h-219v219h219zM567 1747v-219h-219v219h219z" />
    <glyph glyph-name="Eth" unicode="&#xd0;" horiz-adv-x="1310" 
d="M688 0h-514v645h-143v146h143v643h514q231 0 372.5 -137.5t141.5 -368.5v-422q0 -231 -141.5 -368.5t-372.5 -137.5zM393 217h295q55 0 106.5 17.5t94.5 52t68.5 92.5t25.5 131v414q0 73 -25.5 131t-68.5 92.5t-94.5 52t-106.5 17.5h-295v-426h295v-146h-295v-428z" />
    <glyph glyph-name="Ntilde" unicode="&#xd1;" horiz-adv-x="1331" 
d="M1180 1434v-1434h-219l-590 1028v-1028h-219v1434h219l590 -1028v1028h219zM543 1759q67 0 106 -16l78 -33q28 -12 41 -12q41 0 61 57h187q-12 -72 -39.5 -122.5t-63 -73.5t-65.5 -32t-60 -9q-67 0 -106 16l-78 33q-28 12 -41 12q-41 0 -61 -57h-187q12 72 39.5 122.5
t63 73.5t65.5 32t60 9z" />
    <glyph glyph-name="Ograve" unicode="&#xd2;" horiz-adv-x="1245" 
d="M918 485v463q0 72 -25.5 129.5t-68.5 91t-94.5 51t-106.5 17.5t-106.5 -17.5t-94.5 -51t-68.5 -91t-25.5 -129.5v-463q0 -73 25.5 -130t68.5 -90.5t94 -50.5t107 -17t107 17t94 50.5t68.5 90.5t25.5 130zM109 485v463q0 231 141.5 368.5t372.5 137.5t372.5 -137.5
t141.5 -368.5v-463q0 -230 -141 -367.5t-373 -137.5t-373 137.5t-141 367.5zM311 1749h281l168 -223h-187z" />
    <glyph glyph-name="Oacute" unicode="&#xd3;" horiz-adv-x="1245" 
d="M918 485v463q0 72 -25.5 129.5t-68.5 91t-94.5 51t-106.5 17.5t-106.5 -17.5t-94.5 -51t-68.5 -91t-25.5 -129.5v-463q0 -73 25.5 -130t68.5 -90.5t94 -50.5t107 -17t107 17t94 50.5t68.5 90.5t25.5 130zM109 485v463q0 231 141.5 368.5t372.5 137.5t372.5 -137.5
t141.5 -368.5v-463q0 -230 -141 -367.5t-373 -137.5t-373 137.5t-141 367.5zM641 1749h281l-263 -223h-186z" />
    <glyph glyph-name="Ocircumflex" unicode="&#xd4;" horiz-adv-x="1245" 
d="M918 485v463q0 72 -25.5 129.5t-68.5 91t-94.5 51t-106.5 17.5t-106.5 -17.5t-94.5 -51t-68.5 -91t-25.5 -129.5v-463q0 -73 25.5 -130t68.5 -90.5t94 -50.5t107 -17t107 17t94 50.5t68.5 90.5t25.5 130zM109 485v463q0 231 141.5 368.5t372.5 137.5t372.5 -137.5
t141.5 -368.5v-463q0 -230 -141 -367.5t-373 -137.5t-373 137.5t-141 367.5zM713 1526l-90 73l-91 -73h-266l271 223h172l270 -223h-266z" />
    <glyph glyph-name="Otilde" unicode="&#xd5;" horiz-adv-x="1245" 
d="M918 485v463q0 72 -25.5 129.5t-68.5 91t-94.5 51t-106.5 17.5t-106.5 -17.5t-94.5 -51t-68.5 -91t-25.5 -129.5v-463q0 -73 25.5 -130t68.5 -90.5t94 -50.5t107 -17t107 17t94 50.5t68.5 90.5t25.5 130zM109 485v463q0 231 141.5 368.5t372.5 137.5t372.5 -137.5
t141.5 -368.5v-463q0 -230 -141 -367.5t-373 -137.5t-373 137.5t-141 367.5zM500 1759q67 0 106 -16l78 -33q28 -12 41 -12q41 0 61 57h187q-12 -72 -39.5 -122.5t-63 -73.5t-65.5 -32t-60 -9q-67 0 -106 16l-78 33q-28 12 -41 12q-41 0 -61 -57h-187q12 72 39.5 122.5
t63 73.5t65.5 32t60 9z" />
    <glyph glyph-name="Odieresis" unicode="&#xd6;" horiz-adv-x="1245" 
d="M918 485v463q0 72 -25.5 129.5t-68.5 91t-94.5 51t-106.5 17.5t-106.5 -17.5t-94.5 -51t-68.5 -91t-25.5 -129.5v-463q0 -73 25.5 -130t68.5 -90.5t94 -50.5t107 -17t107 17t94 50.5t68.5 90.5t25.5 130zM109 485v463q0 231 141.5 368.5t372.5 137.5t372.5 -137.5
t141.5 -368.5v-463q0 -230 -141 -367.5t-373 -137.5t-373 137.5t-141 367.5zM537 1747v-219h-220v219h220zM928 1747v-219h-219v219h219z" />
    <glyph glyph-name="multiply" unicode="&#xd7;" horiz-adv-x="1142" 
d="M125 260l313 315l-313 316l131 133l315 -317l316 317l131 -133l-316 -316l316 -315l-131 -133l-316 315l-315 -315z" />
    <glyph glyph-name="Oslash" unicode="&#xd8;" horiz-adv-x="1257" 
d="M115 485v463q0 231 141.5 368.5t372.5 137.5q178 0 311 -90l80 129l123 -80l-94 -151q94 -128 94 -314v-463q0 -230 -141 -367.5t-373 -137.5q-186 0 -314 88l-75 -125l-125 77l92 152q-92 127 -92 313zM334 948v-463q0 -38 10 -90l479 779q-81 63 -194 63
q-55 0 -106.5 -17.5t-94.5 -51t-68.5 -91t-25.5 -129.5zM924 485v463q0 46 -13 90l-477 -778q81 -63 195 -63q56 0 107 17t94 50.5t68.5 90.5t25.5 130z" />
    <glyph glyph-name="Ugrave" unicode="&#xd9;" horiz-adv-x="1294" 
d="M942 485v949h219v-949q0 -230 -141 -367.5t-373 -137.5t-373 137.5t-141 367.5v949h219v-949q0 -73 25.5 -130t68.5 -90.5t94 -50.5t107 -17t107 17t94 50.5t68.5 90.5t25.5 130zM336 1749h280l168 -223h-186z" />
    <glyph glyph-name="Uacute" unicode="&#xda;" horiz-adv-x="1294" 
d="M942 485v949h219v-949q0 -230 -141 -367.5t-373 -137.5t-373 137.5t-141 367.5v949h219v-949q0 -73 25.5 -130t68.5 -90.5t94 -50.5t107 -17t107 17t94 50.5t68.5 90.5t25.5 130zM666 1749h280l-262 -223h-186z" />
    <glyph glyph-name="Ucircumflex" unicode="&#xdb;" horiz-adv-x="1294" 
d="M942 485v949h219v-949q0 -230 -141 -367.5t-373 -137.5t-373 137.5t-141 367.5v949h219v-949q0 -73 25.5 -130t68.5 -90.5t94 -50.5t107 -17t107 17t94 50.5t68.5 90.5t25.5 130zM737 1526l-90 73l-90 -73h-266l270 223h172l271 -223h-267z" />
    <glyph glyph-name="Udieresis" unicode="&#xdc;" horiz-adv-x="1294" 
d="M942 485v949h219v-949q0 -230 -141 -367.5t-373 -137.5t-373 137.5t-141 367.5v949h219v-949q0 -73 25.5 -130t68.5 -90.5t94 -50.5t107 -17t107 17t94 50.5t68.5 90.5t25.5 130zM561 1747v-219h-219v219h219zM952 1747v-219h-219v219h219z" />
    <glyph glyph-name="Yacute" unicode="&#xdd;" horiz-adv-x="1216" 
d="M1223 1434l-506 -887v-547h-219v547l-504 887h242l372 -660l373 660h242zM627 1749h280l-262 -223h-186z" />
    <glyph glyph-name="Thorn" unicode="&#xde;" horiz-adv-x="1206" 
d="M696 973h-325v-508h325q132 0 196 71.5t64 182.5t-64 182.5t-196 71.5zM371 248v-248h-219v1434h219v-248h325q122 0 216 -37t151.5 -102.5t87 -149t29.5 -180.5t-29.5 -180.5t-87 -149t-151.5 -102.5t-216 -37h-325z" />
    <glyph glyph-name="germandbls" unicode="&#xdf;" horiz-adv-x="1107" 
d="M141 0v1055q0 399 389 399q390 0 390 -399q0 -175 -76 -269q178 -121 178 -358q0 -110 -34 -197t-93.5 -141t-137 -82t-167.5 -28q-50 0 -105 10v217q47 -21 105 -21q217 0 217 242q0 106 -63 173t-185 67h-74v198h45q175 0 175 189q0 192 -175 192q-174 0 -174 -192
v-1055h-215z" />
    <glyph glyph-name="agrave" unicode="&#xe0;" horiz-adv-x="1112" 
d="M545 879q97 0 156.5 -52t66.5 -153v-2q-125 -10 -174.5 -14.5t-129 -17t-140.5 -30.5q-120 -38 -175 -126.5t-55 -190.5q0 -105 51.5 -177.5t131 -104t178.5 -31.5q215 0 315 120v-100h215v647q0 101 -28.5 179.5t-73 126t-104.5 78.5t-117 42.5t-117 11.5
q-70 0 -135.5 -17t-129.5 -55t-109.5 -111t-59.5 -173h219q23 74 78.5 112t136.5 38zM489 186q-180 0 -180 125q0 69 51 99q38 22 106.5 36.5t124.5 20t179 14.5v-59q0 -57 -18 -100t-45.5 -68.5t-66 -41t-74.5 -21t-77 -5.5zM266 1434h277l137 -265h-172z" />
    <glyph glyph-name="aacute" unicode="&#xe1;" horiz-adv-x="1112" 
d="M545 879q-81 0 -136.5 -38t-78.5 -112h-219q14 100 59.5 173t109.5 111t129.5 55t135.5 17q60 0 117 -11.5t117 -42.5t104.5 -78.5t73 -126t28.5 -179.5v-647h-215v100q-100 -120 -315 -120q-99 0 -178.5 31.5t-131 104t-51.5 177.5q0 102 55 190.5t175 126.5
q61 18 140.5 30.5t129 17t174.5 14.5v2q-7 101 -66.5 153t-156.5 52zM489 186q41 0 77 5.5t74.5 21t66 41t45.5 68.5t18 100v59q-123 -9 -179 -14.5t-124.5 -20t-106.5 -36.5q-51 -30 -51 -99q0 -125 180 -125zM539 1434h276l-242 -265h-172z" />
    <glyph glyph-name="acircumflex" unicode="&#xe2;" horiz-adv-x="1112" 
d="M545 879q-81 0 -136.5 -38t-78.5 -112h-219q14 100 59.5 173t109.5 111t129.5 55t135.5 17q60 0 117 -11.5t117 -42.5t104.5 -78.5t73 -126t28.5 -179.5v-647h-215v100q-100 -120 -315 -120q-99 0 -178.5 31.5t-131 104t-51.5 177.5q0 102 55 190.5t175 126.5
q61 18 140.5 30.5t129 17t174.5 14.5v2q-7 101 -66.5 153t-156.5 52zM489 186q41 0 77 5.5t74.5 21t66 41t45.5 68.5t18 100v59q-123 -9 -179 -14.5t-124.5 -20t-106.5 -36.5q-51 -30 -51 -99q0 -125 180 -125zM645 1434l270 -265h-239l-117 115l-117 -115h-239l270 265h172
z" />
    <glyph glyph-name="atilde" unicode="&#xe3;" horiz-adv-x="1112" 
d="M545 879q-81 0 -136.5 -38t-78.5 -112h-219q14 100 59.5 173t109.5 111t129.5 55t135.5 17q60 0 117 -11.5t117 -42.5t104.5 -78.5t73 -126t28.5 -179.5v-647h-215v100q-100 -120 -315 -120q-99 0 -178.5 31.5t-131 104t-51.5 177.5q0 102 55 190.5t175 126.5
q61 18 140.5 30.5t129 17t174.5 14.5v2q-7 101 -66.5 153t-156.5 52zM489 186q41 0 77 5.5t74.5 21t66 41t45.5 68.5t18 100v59q-123 -9 -179 -14.5t-124.5 -20t-106.5 -36.5q-51 -30 -51 -99q0 -125 180 -125zM381 1186h-172q12 72 39.5 122.5t63 73.5t65 32t59.5 9
q63 0 107 -18l78 -33q33 -14 55 -14q40 0 61 61h172q-12 -72 -39.5 -122.5t-63 -73.5t-65 -32t-59.5 -9q-63 0 -107 18l-77 33q-33 14 -56 14q-40 0 -61 -61z" />
    <glyph glyph-name="adieresis" unicode="&#xe4;" horiz-adv-x="1112" 
d="M545 879q-81 0 -136.5 -38t-78.5 -112h-219q14 100 59.5 173t109.5 111t129.5 55t135.5 17q60 0 117 -11.5t117 -42.5t104.5 -78.5t73 -126t28.5 -179.5v-647h-215v100q-100 -120 -315 -120q-99 0 -178.5 31.5t-131 104t-51.5 177.5q0 102 55 190.5t175 126.5
q61 18 140.5 30.5t129 17t174.5 14.5v2q-7 101 -66.5 153t-156.5 52zM489 186q41 0 77 5.5t74.5 21t66 41t45.5 68.5t18 100v59q-123 -9 -179 -14.5t-124.5 -20t-106.5 -36.5q-51 -30 -51 -99q0 -125 180 -125zM469 1411v-219h-215v219h215zM864 1411v-219h-215v219h215z
" />
    <glyph glyph-name="aring" unicode="&#xe5;" horiz-adv-x="1112" 
d="M545 879q-81 0 -136.5 -38t-78.5 -112h-219q14 100 59.5 173t109.5 111t129.5 55t135.5 17q60 0 117 -11.5t117 -42.5t104.5 -78.5t73 -126t28.5 -179.5v-647h-215v100q-100 -120 -315 -120q-99 0 -178.5 31.5t-131 104t-51.5 177.5q0 102 55 190.5t175 126.5
q61 18 140.5 30.5t129 17t174.5 14.5v2q-7 101 -66.5 153t-156.5 52zM489 186q41 0 77 5.5t74.5 21t66 41t45.5 68.5t18 100v59q-123 -9 -179 -14.5t-124.5 -20t-106.5 -36.5q-51 -30 -51 -99q0 -125 180 -125zM408 1300q0 63 44 108.5t107 45.5t108.5 -45.5t45.5 -108.5
t-45.5 -107t-108.5 -44t-107 44t-44 107zM512 1300q0 -20 13.5 -33.5t33.5 -13.5t33.5 13.5t13.5 33.5t-13.5 34t-33.5 14t-33.5 -14t-13.5 -34z" />
    <glyph glyph-name="ae" unicode="&#xe6;" horiz-adv-x="1753" 
d="M985 457v-35q0 -118 60.5 -177t164.5 -59q168 0 215 150h220q-11 -81 -44 -144.5t-76.5 -102.5t-99.5 -64.5t-108 -35t-107 -9.5q-116 0 -219 45t-164 149q-65 -109 -155 -151.5t-217 -42.5q-99 0 -178.5 31.5t-131 104t-51.5 177.5q0 102 55 190.5t175 126.5
q61 18 140.5 30.5t129 17t174.5 14.5q-7 102 -66.5 154.5t-156.5 52.5q-81 0 -136.5 -38t-78.5 -112h-219q14 100 59.5 173t109.5 111t129.5 55t135.5 17q224 0 332 -149q116 149 333 149q60 0 117 -11.5t117.5 -42.5t105 -78.5t73 -126t28.5 -179.5v-190h-666zM489 186
q41 0 77 5.5t74.5 21t66 41t45.5 68.5t18 100v59q-123 -9 -179 -14.5t-124.5 -20t-106.5 -36.5q-51 -30 -51 -99q0 -125 180 -125zM1210 879q-103 0 -164 -59t-61 -173h451q-1 114 -62.5 173t-163.5 59z" />
    <glyph glyph-name="ccedilla" unicode="&#xe7;" horiz-adv-x="1083" 
d="M774 360h217q-8 -87 -39.5 -155t-76 -109.5t-101.5 -68.5t-111 -37t-110 -10q-60 0 -117 11.5t-117 42.5t-104.5 78.5t-73 126t-28.5 179.5v229q0 101 28.5 179.5t73 126t104.5 78.5t117 42.5t117 11.5q56 0 110 -10t111 -37t101.5 -68.5t76 -109.5t39.5 -155h-219
q-17 86 -74 130t-145 44q-104 0 -164.5 -59t-60.5 -177v-221q0 -118 60.5 -177t164.5 -59q88 0 146 44t75 130zM346 -324l133 324h176l-77 -324h-232z" />
    <glyph glyph-name="egrave" unicode="&#xe8;" horiz-adv-x="1095" 
d="M553 186q-104 0 -164.5 59t-60.5 177v35h665v190q0 101 -28.5 179.5t-73 126t-104.5 78.5t-117 42.5t-117 11.5t-117 -11.5t-117 -42.5t-104.5 -78.5t-73 -126t-28.5 -179.5v-229q0 -101 28.5 -179.5t73 -126t104.5 -78.5t117 -42.5t117 -11.5q70 0 135.5 17t129.5 55
t109.5 111t59.5 173h-219q-47 -150 -215 -150zM553 879q102 0 163 -58.5t62 -171.5v-2h-450v2q0 113 61 171.5t164 58.5zM281 1434h276l137 -265h-172z" />
    <glyph glyph-name="eacute" unicode="&#xe9;" horiz-adv-x="1095" 
d="M553 186q168 0 215 150h219q-14 -100 -59.5 -173t-109.5 -111t-129.5 -55t-135.5 -17q-60 0 -117 11.5t-117 42.5t-104.5 78.5t-73 126t-28.5 179.5v229q0 101 28.5 179.5t73 126t104.5 78.5t117 42.5t117 11.5t117 -11.5t117 -42.5t104.5 -78.5t73 -126t28.5 -179.5
v-190h-665v-35q0 -118 60.5 -177t164.5 -59zM553 879q-103 0 -164 -58.5t-61 -171.5v-2h450v2q-1 113 -62 171.5t-163 58.5zM553 1434h276l-241 -265h-172z" />
    <glyph glyph-name="ecircumflex" unicode="&#xea;" horiz-adv-x="1095" 
d="M553 186q168 0 215 150h219q-14 -100 -59.5 -173t-109.5 -111t-129.5 -55t-135.5 -17q-60 0 -117 11.5t-117 42.5t-104.5 78.5t-73 126t-28.5 179.5v229q0 101 28.5 179.5t73 126t104.5 78.5t117 42.5t117 11.5t117 -11.5t117 -42.5t104.5 -78.5t73 -126t28.5 -179.5
v-190h-665v-35q0 -118 60.5 -177t164.5 -59zM553 879q-103 0 -164 -58.5t-61 -171.5v-2h450v2q-1 113 -62 171.5t-163 58.5zM639 1434l270 -265h-239l-117 115l-117 -115h-239l270 265h172z" />
    <glyph glyph-name="edieresis" unicode="&#xeb;" horiz-adv-x="1095" 
d="M553 186q168 0 215 150h219q-14 -100 -59.5 -173t-109.5 -111t-129.5 -55t-135.5 -17q-60 0 -117 11.5t-117 42.5t-104.5 78.5t-73 126t-28.5 179.5v229q0 101 28.5 179.5t73 126t104.5 78.5t117 42.5t117 11.5t117 -11.5t117 -42.5t104.5 -78.5t73 -126t28.5 -179.5
v-190h-665v-35q0 -118 60.5 -177t164.5 -59zM553 879q-103 0 -164 -58.5t-61 -171.5v-2h450v2q-1 113 -62 171.5t-163 58.5zM463 1411v-219h-215v219h215zM858 1411v-219h-215v219h215z" />
    <glyph glyph-name="igrave" unicode="&#xec;" horiz-adv-x="497" 
d="M356 0v1057h-215v-1057h215zM-25 1434h277l137 -265h-172z" />
    <glyph glyph-name="iacute" unicode="&#xed;" horiz-adv-x="497" 
d="M356 1057v-1057h-215v1057h215zM250 1434h276l-241 -265h-172z" />
    <glyph glyph-name="icircumflex" unicode="&#xee;" horiz-adv-x="497" 
d="M356 1057v-1057h-215v1057h215zM336 1434l270 -265h-239l-117 115l-117 -115h-239l270 265h172z" />
    <glyph glyph-name="idieresis" unicode="&#xef;" horiz-adv-x="497" 
d="M356 1057v-1057h-215v1057h215zM160 1411v-219h-215v219h215zM555 1411v-219h-215v219h215z" />
    <glyph glyph-name="eth" unicode="&#xf0;" horiz-adv-x="1105" 
d="M113 418v229q0 97 27 174t70 124.5t100.5 79.5t113 45t113.5 15l-68 93h-256v135h158l-88 121h258l88 -121h202v-135h-104l174 -240q92 -130 92 -291v-229q0 -101 -28.5 -179.5t-73 -126t-104.5 -78.5t-117 -42.5t-117 -11.5t-117 11.5t-117 42.5t-104.5 78.5t-73 126
t-28.5 179.5zM778 422v221q0 118 -60.5 177t-164.5 59t-164.5 -59t-60.5 -177v-221q0 -118 60.5 -177t164.5 -59t164.5 59t60.5 177z" />
    <glyph glyph-name="ntilde" unicode="&#xf1;" horiz-adv-x="1148" 
d="M356 643v-643h-215v1057h215v-92q27 48 95.5 84t150.5 36q57 0 113.5 -14t112.5 -47t98.5 -81.5t69 -125t26.5 -170.5v-647h-215v643q0 117 -60.5 175.5t-164.5 58.5t-165 -58.5t-61 -175.5zM403 1186h-172q12 72 39.5 122.5t63 73.5t65.5 32t60 9q62 0 106 -18l78 -33
q33 -14 55 -14q41 0 62 61h172q-12 -72 -39.5 -122.5t-63 -73.5t-65 -32t-59.5 -9q-63 0 -107 18l-78 33q-33 14 -55 14q-41 0 -62 -61z" />
    <glyph glyph-name="ograve" unicode="&#xf2;" horiz-adv-x="1105" 
d="M778 643v-221q0 -118 -60.5 -177t-164.5 -59t-164.5 59t-60.5 177v221q0 118 60.5 177t164.5 59t164.5 -59t60.5 -177zM113 647v-229q0 -101 28.5 -179.5t73 -126t104.5 -78.5t117 -42.5t117 -11.5t117 11.5t117 42.5t104.5 78.5t73 126t28.5 179.5v229
q0 101 -28.5 179.5t-73 126t-104.5 78.5t-117 42.5t-117 11.5t-117 -11.5t-117 -42.5t-104.5 -78.5t-73 -126t-28.5 -179.5zM281 1434h276l137 -265h-172z" />
    <glyph glyph-name="oacute" unicode="&#xf3;" horiz-adv-x="1105" 
d="M778 422v221q0 118 -60.5 177t-164.5 59t-164.5 -59t-60.5 -177v-221q0 -118 60.5 -177t164.5 -59t164.5 59t60.5 177zM113 418v229q0 101 28.5 179.5t73 126t104.5 78.5t117 42.5t117 11.5t117 -11.5t117 -42.5t104.5 -78.5t73 -126t28.5 -179.5v-229
q0 -101 -28.5 -179.5t-73 -126t-104.5 -78.5t-117 -42.5t-117 -11.5t-117 11.5t-117 42.5t-104.5 78.5t-73 126t-28.5 179.5zM553 1434h276l-241 -265h-172z" />
    <glyph glyph-name="ocircumflex" unicode="&#xf4;" horiz-adv-x="1105" 
d="M778 422v221q0 118 -60.5 177t-164.5 59t-164.5 -59t-60.5 -177v-221q0 -118 60.5 -177t164.5 -59t164.5 59t60.5 177zM113 418v229q0 101 28.5 179.5t73 126t104.5 78.5t117 42.5t117 11.5t117 -11.5t117 -42.5t104.5 -78.5t73 -126t28.5 -179.5v-229
q0 -101 -28.5 -179.5t-73 -126t-104.5 -78.5t-117 -42.5t-117 -11.5t-117 11.5t-117 42.5t-104.5 78.5t-73 126t-28.5 179.5zM639 1434l270 -265h-239l-117 115l-117 -115h-239l270 265h172z" />
    <glyph glyph-name="otilde" unicode="&#xf5;" horiz-adv-x="1105" 
d="M778 422v221q0 118 -60.5 177t-164.5 59t-164.5 -59t-60.5 -177v-221q0 -118 60.5 -177t164.5 -59t164.5 59t60.5 177zM113 418v229q0 101 28.5 179.5t73 126t104.5 78.5t117 42.5t117 11.5t117 -11.5t117 -42.5t104.5 -78.5t73 -126t28.5 -179.5v-229
q0 -101 -28.5 -179.5t-73 -126t-104.5 -78.5t-117 -42.5t-117 -11.5t-117 11.5t-117 42.5t-104.5 78.5t-73 126t-28.5 179.5zM375 1186h-172q12 72 39.5 122.5t63 73.5t65 32t59.5 9q63 0 107 -18l77 -33q33 -14 56 -14q40 0 61 61h172q-12 -72 -39.5 -122.5t-63 -73.5
t-65 -32t-59.5 -9q-63 0 -107 18l-77 33q-33 14 -56 14q-40 0 -61 -61z" />
    <glyph glyph-name="odieresis" unicode="&#xf6;" horiz-adv-x="1105" 
d="M778 422v221q0 118 -60.5 177t-164.5 59t-164.5 -59t-60.5 -177v-221q0 -118 60.5 -177t164.5 -59t164.5 59t60.5 177zM113 418v229q0 101 28.5 179.5t73 126t104.5 78.5t117 42.5t117 11.5t117 -11.5t117 -42.5t104.5 -78.5t73 -126t28.5 -179.5v-229
q0 -101 -28.5 -179.5t-73 -126t-104.5 -78.5t-117 -42.5t-117 -11.5t-117 11.5t-117 42.5t-104.5 78.5t-73 126t-28.5 179.5zM463 1411v-219h-215v219h215zM858 1411v-219h-215v219h215z" />
    <glyph glyph-name="divide" unicode="&#xf7;" horiz-adv-x="1142" 
d="M434 930q0 57 40 97t97 40t97.5 -40t40.5 -97t-40.5 -97t-97.5 -40t-97 40t-40 97zM434 219q0 57 40 97t97 40t97.5 -40t40.5 -97t-40.5 -97t-97.5 -40t-97 40t-40 97zM131 668h881v-187h-881v187z" />
    <glyph glyph-name="oslash" unicode="&#xf8;" horiz-adv-x="1118" 
d="M119 418v229q0 101 28.5 179.5t73 126t104.5 78.5t117 42.5t117 11.5q149 0 260 -69l70 98l110 -78l-79 -112q79 -106 79 -277v-229q0 -101 -28.5 -179.5t-73 -126t-104.5 -78.5t-117 -42.5t-117 -11.5q-150 0 -262 67l-68 -96l-110 78l80 110q-80 108 -80 279zM334 643
v-221q0 -49 8 -80l354 500q-55 37 -137 37q-104 0 -164.5 -59t-60.5 -177zM784 422v221q0 51 -8 78l-354 -498q55 -37 137 -37q104 0 164.5 59t60.5 177z" />
    <glyph glyph-name="ugrave" unicode="&#xf9;" 
d="M342 422v635h-215v-639q0 -90 25 -164.5t66 -124.5t95 -84t110 -49.5t112 -15.5q83 0 151 35t94 85v-100h215v1057h-215v-635q0 -117 -59 -175.5t-160 -58.5t-160 58.5t-59 175.5zM289 1434h276l137 -265h-172z" />
    <glyph glyph-name="uacute" unicode="&#xfa;" 
d="M342 1057v-635q0 -117 59 -175.5t160 -58.5t160 58.5t59 175.5v635h215v-1057h-215v100q-26 -50 -94 -85t-151 -35q-56 0 -112 15.5t-110 49.5t-95 84t-66 124.5t-25 164.5v639h215zM561 1434h277l-242 -265h-172z" />
    <glyph glyph-name="ucircumflex" unicode="&#xfb;" 
d="M342 1057v-635q0 -117 59 -175.5t160 -58.5t160 58.5t59 175.5v635h215v-1057h-215v100q-26 -50 -94 -85t-151 -35q-56 0 -112 15.5t-110 49.5t-95 84t-66 124.5t-25 164.5v639h215zM647 1434l271 -265h-240l-117 115l-117 -115h-239l270 265h172z" />
    <glyph glyph-name="udieresis" unicode="&#xfc;" 
d="M342 1057v-635q0 -117 59 -175.5t160 -58.5t160 58.5t59 175.5v635h215v-1057h-215v100q-26 -50 -94 -85t-151 -35q-56 0 -112 15.5t-110 49.5t-95 84t-66 124.5t-25 164.5v639h215zM471 1411v-219h-215v219h215zM866 1411v-219h-215v219h215z" />
    <glyph glyph-name="yacute" unicode="&#xfd;" horiz-adv-x="974" 
d="M975 1057l-469 -1301q-47 -133 -234 -133h-110v207h43q32 0 52 3.5t33 8t23.5 21t16.5 29t18 45.5l29 77l-377 1043h223l264 -752l265 752h223zM487 1434h277l-242 -265h-172z" />
    <glyph glyph-name="thorn" unicode="&#xfe;" horiz-adv-x="1134" 
d="M807 422v221q0 117 -60.5 175.5t-164.5 58.5t-165 -58.5t-61 -175.5v-221q0 -117 61 -175.5t165 -58.5t164.5 58.5t60.5 175.5zM1022 647v-229q0 -94 -26.5 -170.5t-69 -125t-98.5 -81.5t-112.5 -47t-113.5 -14q-83 0 -151.5 35t-94.5 85v-477h-215v1811h215v-469
q27 48 95.5 84t150.5 36q57 0 113.5 -14t112.5 -47t98.5 -81.5t69 -125t26.5 -170.5z" />
    <glyph glyph-name="ydieresis" unicode="&#xff;" horiz-adv-x="974" 
d="M975 1057l-469 -1301q-47 -133 -234 -133h-110v207h43q32 0 52 3.5t33 8t23.5 21t16.5 29t18 45.5l29 77l-377 1043h223l264 -752l265 752h223zM397 1411v-219h-215v219h215zM793 1411v-219h-215v219h215z" />
    <glyph glyph-name="Amacron" unicode="&#x100;" horiz-adv-x="1261" 
d="M1020 0l-121 346h-537l-120 -346h-226l502 1434h225l502 -1434h-225zM432 549h397l-198 569zM301 1726h660v-178h-660v178z" />
    <glyph glyph-name="amacron" unicode="&#x101;" horiz-adv-x="1112" 
d="M545 879q-81 0 -136.5 -38t-78.5 -112h-219q14 100 59.5 173t109.5 111t129.5 55t135.5 17q60 0 117 -11.5t117 -42.5t104.5 -78.5t73 -126t28.5 -179.5v-647h-215v100q-100 -120 -315 -120q-99 0 -178.5 31.5t-131 104t-51.5 177.5q0 102 55 190.5t175 126.5
q61 18 140.5 30.5t129 17t174.5 14.5v2q-7 101 -66.5 153t-156.5 52zM489 186q41 0 77 5.5t74.5 21t66 41t45.5 68.5t18 100v59q-123 -9 -179 -14.5t-124.5 -20t-106.5 -36.5q-51 -30 -51 -99q0 -125 180 -125zM229 1389h660v-175h-660v175z" />
    <glyph glyph-name="Abreve" unicode="&#x102;" horiz-adv-x="1261" 
d="M1020 0l-121 346h-537l-120 -346h-226l502 1434h225l502 -1434h-225zM432 549h397l-198 569zM801 1749h166q0 -94 -65 -158.5t-159 -64.5h-225q-94 0 -158.5 64.5t-64.5 158.5h166q0 -25 16 -41t41 -16h225q25 0 41.5 16t16.5 41z" />
    <glyph glyph-name="abreve" unicode="&#x103;" horiz-adv-x="1112" 
d="M545 879q-81 0 -136.5 -38t-78.5 -112h-219q14 100 59.5 173t109.5 111t129.5 55t135.5 17q60 0 117 -11.5t117 -42.5t104.5 -78.5t73 -126t28.5 -179.5v-647h-215v100q-100 -120 -315 -120q-99 0 -178.5 31.5t-131 104t-51.5 177.5q0 102 55 190.5t175 126.5
q61 18 140.5 30.5t129 17t174.5 14.5v2q-7 101 -66.5 153t-156.5 52zM489 186q41 0 77 5.5t74.5 21t66 41t45.5 68.5t18 100v59q-123 -9 -179 -14.5t-124.5 -20t-106.5 -36.5q-51 -30 -51 -99q0 -125 180 -125zM631 1169h-144q-110 0 -187 77.5t-77 187.5h162
q0 -43 29.5 -73t72.5 -30h144q43 0 72.5 30t29.5 73h162q0 -110 -77 -187.5t-187 -77.5z" />
    <glyph glyph-name="Aogonek" unicode="&#x104;" horiz-adv-x="1261" 
d="M743 1434l502 -1434q-42 -30 -64.5 -47.5t-50.5 -42t-40.5 -44.5t-12.5 -38q0 -49 56 -49q45 0 112 35v-164q-88 -37 -180 -37q-89 0 -148 42.5t-59 133.5q0 128 162 211l-121 346h-537l-120 -346h-226l502 1434h225zM432 549h397l-198 569z" />
    <glyph glyph-name="aogonek" unicode="&#x105;" horiz-adv-x="1112" 
d="M545 879q-81 0 -136.5 -38t-78.5 -112h-219q14 100 59.5 173t109.5 111t129.5 55t135.5 17q60 0 117 -11.5t117 -42.5t104.5 -78.5t73 -126t28.5 -179.5v-647h-215v100q-100 -120 -315 -120q-99 0 -178.5 31.5t-131 104t-51.5 177.5q0 102 55 190.5t175 126.5
q61 18 140.5 30.5t129 17t174.5 14.5v2q-7 101 -66.5 153t-156.5 52zM489 186q41 0 77 5.5t74.5 21t66 41t45.5 68.5t18 100v59q-123 -9 -179 -14.5t-124.5 -20t-106.5 -36.5q-51 -30 -51 -99q0 -125 180 -125zM770 0h215q-42 -30 -64.5 -47.5t-50.5 -42t-40.5 -44.5
t-12.5 -38q0 -53 55 -53q46 0 113 35v-160q-88 -37 -180 -37q-88 0 -145.5 42t-57.5 134q0 125 168 211z" />
    <glyph glyph-name="Cacute" unicode="&#x106;" horiz-adv-x="1222" 
d="M915 444h220q-12 -213 -151.5 -338.5t-360.5 -125.5q-232 0 -373 137.5t-141 367.5v463q0 231 141.5 368.5t372.5 137.5q221 0 360.5 -125.5t151.5 -339.5h-220q-8 82 -53.5 140t-107 83t-131.5 25q-55 0 -106.5 -17.5t-94.5 -51t-68.5 -91t-25.5 -129.5v-463
q0 -73 25.5 -130t68.5 -90.5t94 -50.5t107 -17q70 0 131.5 25t107 82.5t53.5 139.5zM639 1749h281l-263 -223h-186z" />
    <glyph glyph-name="cacute" unicode="&#x107;" horiz-adv-x="1083" 
d="M774 360h217q-8 -87 -39.5 -155t-76 -109.5t-101.5 -68.5t-111 -37t-110 -10q-60 0 -117 11.5t-117 42.5t-104.5 78.5t-73 126t-28.5 179.5v229q0 101 28.5 179.5t73 126t104.5 78.5t117 42.5t117 11.5q56 0 110 -10t111 -37t101.5 -68.5t76 -109.5t39.5 -155h-219
q-17 86 -74 130t-145 44q-104 0 -164.5 -59t-60.5 -177v-221q0 -118 60.5 -177t164.5 -59q88 0 146 44t75 130zM551 1434h276l-241 -265h-172z" />
    <glyph glyph-name="Ccircumflex" unicode="&#x108;" horiz-adv-x="1222" 
d="M915 444h220q-12 -213 -151.5 -338.5t-360.5 -125.5q-232 0 -373 137.5t-141 367.5v463q0 231 141.5 368.5t372.5 137.5q221 0 360.5 -125.5t151.5 -339.5h-220q-8 82 -53.5 140t-107 83t-131.5 25q-55 0 -106.5 -17.5t-94.5 -51t-68.5 -91t-25.5 -129.5v-463
q0 -73 25.5 -130t68.5 -90.5t94 -50.5t107 -17q70 0 131.5 25t107 82.5t53.5 139.5zM711 1526l-90 73l-91 -73h-266l271 223h172l270 -223h-266z" />
    <glyph glyph-name="ccircumflex" unicode="&#x109;" horiz-adv-x="1083" 
d="M774 360h217q-8 -87 -39.5 -155t-76 -109.5t-101.5 -68.5t-111 -37t-110 -10q-60 0 -117 11.5t-117 42.5t-104.5 78.5t-73 126t-28.5 179.5v229q0 101 28.5 179.5t73 126t104.5 78.5t117 42.5t117 11.5q56 0 110 -10t111 -37t101.5 -68.5t76 -109.5t39.5 -155h-219
q-17 86 -74 130t-145 44q-104 0 -164.5 -59t-60.5 -177v-221q0 -118 60.5 -177t164.5 -59q88 0 146 44t75 130zM637 1434l270 -265h-239l-117 115l-117 -115h-239l270 265h172z" />
    <glyph glyph-name="Cdotaccent" unicode="&#x10a;" horiz-adv-x="1222" 
d="M915 444h220q-12 -213 -151.5 -338.5t-360.5 -125.5q-232 0 -373 137.5t-141 367.5v463q0 231 141.5 368.5t372.5 137.5q221 0 360.5 -125.5t151.5 -339.5h-220q-8 82 -53.5 140t-107 83t-131.5 25q-55 0 -106.5 -17.5t-94.5 -51t-68.5 -91t-25.5 -129.5v-463
q0 -73 25.5 -130t68.5 -90.5t94 -50.5t107 -17q70 0 131.5 25t107 82.5t53.5 139.5zM731 1747v-219h-219v219h219z" />
    <glyph glyph-name="cdotaccent" unicode="&#x10b;" horiz-adv-x="1083" 
d="M774 360h217q-8 -87 -39.5 -155t-76 -109.5t-101.5 -68.5t-111 -37t-110 -10q-60 0 -117 11.5t-117 42.5t-104.5 78.5t-73 126t-28.5 179.5v229q0 101 28.5 179.5t73 126t104.5 78.5t117 42.5t117 11.5q56 0 110 -10t111 -37t101.5 -68.5t76 -109.5t39.5 -155h-219
q-17 86 -74 130t-145 44q-104 0 -164.5 -59t-60.5 -177v-221q0 -118 60.5 -177t164.5 -59q88 0 146 44t75 130zM659 1411v-219h-215v219h215z" />
    <glyph glyph-name="Ccaron" unicode="&#x10c;" horiz-adv-x="1222" 
d="M915 444h220q-12 -213 -151.5 -338.5t-360.5 -125.5q-232 0 -373 137.5t-141 367.5v463q0 231 141.5 368.5t372.5 137.5q221 0 360.5 -125.5t151.5 -339.5h-220q-8 82 -53.5 140t-107 83t-131.5 25q-55 0 -106.5 -17.5t-94.5 -51t-68.5 -91t-25.5 -129.5v-463
q0 -73 25.5 -130t68.5 -90.5t94 -50.5t107 -17q70 0 131.5 25t107 82.5t53.5 139.5zM621 1675l90 74h266l-270 -223h-172l-271 223h266z" />
    <glyph glyph-name="ccaron" unicode="&#x10d;" horiz-adv-x="1083" 
d="M774 360h217q-8 -87 -39.5 -155t-76 -109.5t-101.5 -68.5t-111 -37t-110 -10q-60 0 -117 11.5t-117 42.5t-104.5 78.5t-73 126t-28.5 179.5v229q0 101 28.5 179.5t73 126t104.5 78.5t117 42.5t117 11.5q56 0 110 -10t111 -37t101.5 -68.5t76 -109.5t39.5 -155h-219
q-17 86 -74 130t-145 44q-104 0 -164.5 -59t-60.5 -177v-221q0 -118 60.5 -177t164.5 -59q88 0 146 44t75 130zM907 1434l-270 -265h-172l-270 265h239l117 -115l117 115h239z" />
    <glyph glyph-name="Dcaron" unicode="&#x10e;" horiz-adv-x="1288" 
d="M666 0h-514v1434h514q231 0 372.5 -137.5t141.5 -368.5v-422q0 -231 -141.5 -368.5t-372.5 -137.5zM371 217h295q55 0 106.5 17.5t94.5 52t68.5 92.5t25.5 131v414q0 73 -25.5 131t-68.5 92.5t-94.5 52t-106.5 17.5h-295v-1000zM625 1675l90 74h266l-270 -223h-172
l-271 223h267z" />
    <glyph glyph-name="dcaron" unicode="&#x10f;" horiz-adv-x="1134" 
d="M1368 1434l-162 -324h-151l57 324h256zM328 643v-221q0 -117 57.5 -175.5t153.5 -58.5q106 0 172.5 59t66.5 175v221q0 117 -60.5 175.5t-164.5 58.5t-164.5 -58.5t-60.5 -175.5zM113 418v229q0 94 26.5 170.5t68.5 125t98 81.5t112.5 47t113.5 14q82 0 150.5 -36
t95.5 -84v469h215v-1434h-215v100q-26 -50 -94.5 -85t-151.5 -35q-57 0 -113.5 14t-112.5 47t-98 81.5t-68.5 125t-26.5 170.5z" />
    <glyph glyph-name="Dcroat" unicode="&#x110;" horiz-adv-x="1310" 
d="M688 0h-514v645h-143v146h143v643h514q231 0 372.5 -137.5t141.5 -368.5v-422q0 -231 -141.5 -368.5t-372.5 -137.5zM393 217h295q55 0 106.5 17.5t94.5 52t68.5 92.5t25.5 131v414q0 73 -25.5 131t-68.5 92.5t-94.5 52t-106.5 17.5h-295v-426h295v-146h-295v-428z" />
    <glyph glyph-name="dslash" unicode="&#x111;" 
d="M113 418v229q0 94 26.5 170.5t68.5 125t98 81.5t112.5 47t113.5 14q82 0 150.5 -36t95.5 -84v217h-246v135h246v117h215v-117h144v-135h-144v-1182h-215v100q-26 -50 -94.5 -85t-151.5 -35q-57 0 -113.5 14t-112.5 47t-98 81.5t-68.5 125t-26.5 170.5zM328 643v-221
q0 -117 57.5 -175.5t153.5 -58.5q106 0 172.5 59t66.5 175v221q0 117 -60.5 175.5t-164.5 58.5t-164.5 -58.5t-60.5 -175.5z" />
    <glyph glyph-name="Emacron" unicode="&#x112;" horiz-adv-x="1116" 
d="M371 1217v-386h626v-217h-626v-397h626v-217h-845v1434h845v-217h-626zM244 1726h659v-178h-659v178z" />
    <glyph glyph-name="emacron" unicode="&#x113;" horiz-adv-x="1095" 
d="M553 186q168 0 215 150h219q-14 -100 -59.5 -173t-109.5 -111t-129.5 -55t-135.5 -17q-60 0 -117 11.5t-117 42.5t-104.5 78.5t-73 126t-28.5 179.5v229q0 101 28.5 179.5t73 126t104.5 78.5t117 42.5t117 11.5t117 -11.5t117 -42.5t104.5 -78.5t73 -126t28.5 -179.5
v-190h-665v-35q0 -118 60.5 -177t164.5 -59zM553 879q-103 0 -164 -58.5t-61 -171.5v-2h450v2q-1 113 -62 171.5t-163 58.5zM223 1389h660v-175h-660v175z" />
    <glyph glyph-name="Ebreve" unicode="&#x114;" horiz-adv-x="1116" 
d="M371 1217v-386h626v-217h-626v-397h626v-217h-845v1434h845v-217h-626zM743 1749h166q0 -94 -64.5 -158.5t-158.5 -64.5h-225q-94 0 -158.5 64.5t-64.5 158.5h165q0 -25 16.5 -41t41.5 -16h225q25 0 41 16t16 41z" />
    <glyph glyph-name="ebreve" unicode="&#x115;" horiz-adv-x="1095" 
d="M553 186q168 0 215 150h219q-14 -100 -59.5 -173t-109.5 -111t-129.5 -55t-135.5 -17q-60 0 -117 11.5t-117 42.5t-104.5 78.5t-73 126t-28.5 179.5v229q0 101 28.5 179.5t73 126t104.5 78.5t117 42.5t117 11.5t117 -11.5t117 -42.5t104.5 -78.5t73 -126t28.5 -179.5
v-190h-665v-35q0 -118 60.5 -177t164.5 -59zM553 879q-103 0 -164 -58.5t-61 -171.5v-2h450v2q-1 113 -62 171.5t-163 58.5zM625 1169h-144q-110 0 -187 77.5t-77 187.5h162q0 -43 29.5 -73t72.5 -30h144q43 0 72.5 30t29.5 73h162q0 -110 -77 -187.5t-187 -77.5z" />
    <glyph glyph-name="Edotaccent" unicode="&#x116;" horiz-adv-x="1116" 
d="M371 1217v-386h626v-217h-626v-397h626v-217h-845v1434h845v-217h-626zM684 1747v-219h-219v219h219z" />
    <glyph glyph-name="edotaccent" unicode="&#x117;" horiz-adv-x="1095" 
d="M553 186q168 0 215 150h219q-14 -100 -59.5 -173t-109.5 -111t-129.5 -55t-135.5 -17q-60 0 -117 11.5t-117 42.5t-104.5 78.5t-73 126t-28.5 179.5v229q0 101 28.5 179.5t73 126t104.5 78.5t117 42.5t117 11.5t117 -11.5t117 -42.5t104.5 -78.5t73 -126t28.5 -179.5
v-190h-665v-35q0 -118 60.5 -177t164.5 -59zM553 879q-103 0 -164 -58.5t-61 -171.5v-2h450v2q-1 113 -62 171.5t-163 58.5zM662 1411v-219h-216v219h216z" />
    <glyph glyph-name="Eogonek" unicode="&#x118;" horiz-adv-x="1116" 
d="M371 1217v-386h626v-217h-626v-397h626v-217h-845v1434h845v-217h-626zM778 0h219q-42 -30 -64.5 -47.5t-50.5 -42t-40.5 -44.5t-12.5 -38q0 -49 56 -49q45 0 112 35v-164q-88 -37 -180 -37q-89 0 -148 42.5t-59 133.5q0 125 168 211z" />
    <glyph glyph-name="eogonek" unicode="&#x119;" horiz-adv-x="1095" 
d="M553 186q168 0 215 150h219q-17 -107 -60.5 -176t-117.5 -115q-227 -146 -227 -217q0 -53 55 -53q45 0 113 35v-160q-88 -37 -181 -37q-88 0 -145 42t-57 134q0 113 133 195q-56 5 -107.5 20t-103.5 48t-90 79.5t-62 120.5t-24 166v229q0 101 28.5 179.5t73 126
t104.5 78.5t117 42.5t117 11.5t117 -11.5t117 -42.5t104.5 -78.5t73 -126t28.5 -179.5v-190h-665v-35q0 -118 60.5 -177t164.5 -59zM553 879q-103 0 -164 -58.5t-61 -171.5v-2h450v2q-1 113 -62 171.5t-163 58.5z" />
    <glyph glyph-name="Ecaron" unicode="&#x11a;" horiz-adv-x="1116" 
d="M371 1217v-386h626v-217h-626v-397h626v-217h-845v1434h845v-217h-626zM573 1675l91 74h266l-271 -223h-172l-270 223h266z" />
    <glyph glyph-name="ecaron" unicode="&#x11b;" horiz-adv-x="1095" 
d="M553 186q168 0 215 150h219q-14 -100 -59.5 -173t-109.5 -111t-129.5 -55t-135.5 -17q-60 0 -117 11.5t-117 42.5t-104.5 78.5t-73 126t-28.5 179.5v229q0 101 28.5 179.5t73 126t104.5 78.5t117 42.5t117 11.5t117 -11.5t117 -42.5t104.5 -78.5t73 -126t28.5 -179.5
v-190h-665v-35q0 -118 60.5 -177t164.5 -59zM553 879q-103 0 -164 -58.5t-61 -171.5v-2h450v2q-1 113 -62 171.5t-163 58.5zM909 1434l-270 -265h-172l-270 265h239l117 -115l117 115h239z" />
    <glyph glyph-name="Gcircumflex" unicode="&#x11c;" horiz-adv-x="1236" 
d="M623 1454q219 0 357 -123t155 -336h-220q-16 118 -100 180t-192 62q-55 0 -106.5 -17.5t-94.5 -51t-68.5 -91t-25.5 -129.5v-463q0 -73 25.5 -130t68.5 -90.5t94 -50.5t107 -17t107 17t94 50.5t68.5 90.5t25.5 130v93h-295v210h514v-303q0 -230 -141 -367.5t-373 -137.5
t-373 137.5t-141 367.5v463q0 231 141.5 368.5t372.5 137.5zM713 1526l-90 73l-91 -73h-266l271 223h172l270 -223h-266z" />
    <glyph glyph-name="gcircumflex" unicode="&#x11d;" horiz-adv-x="1130" 
d="M549 -190q104 0 164.5 59t60.5 176v117q-26 -50 -94.5 -85.5t-151.5 -35.5q-57 0 -113.5 14t-112.5 47t-98 81.5t-68.5 125t-26.5 170.5v168q0 94 26.5 170.5t68.5 125t98 81.5t112.5 47t113.5 14q82 0 150.5 -36t95.5 -84v92h215v-1016q0 -101 -28.5 -179.5t-73 -126
t-104.5 -78.5t-117 -42.5t-117 -11.5q-55 0 -109 10.5t-111 37.5t-101 68.5t-75.5 108.5t-39.5 152h217q17 -85 74 -127.5t145 -42.5zM324 643v-160q0 -117 60.5 -175t164.5 -58t164.5 58t60.5 175v160q0 117 -60.5 175.5t-164.5 58.5t-164.5 -58.5t-60.5 -175.5zM635 1434
l270 -265h-239l-117 115l-117 -115h-239l270 265h172z" />
    <glyph glyph-name="Gbreve" unicode="&#x11e;" horiz-adv-x="1236" 
d="M623 1454q219 0 357 -123t155 -336h-220q-16 118 -100 180t-192 62q-55 0 -106.5 -17.5t-94.5 -51t-68.5 -91t-25.5 -129.5v-463q0 -73 25.5 -130t68.5 -90.5t94 -50.5t107 -17t107 17t94 50.5t68.5 90.5t25.5 130v93h-295v210h514v-303q0 -230 -141 -367.5t-373 -137.5
t-373 137.5t-141 367.5v463q0 231 141.5 368.5t372.5 137.5zM793 1749h165q0 -94 -64.5 -158.5t-158.5 -64.5h-225q-94 0 -158.5 64.5t-64.5 158.5h166q0 -25 16 -41t41 -16h225q25 0 41.5 16t16.5 41z" />
    <glyph glyph-name="gbreve" unicode="&#x11f;" horiz-adv-x="1130" 
d="M549 -190q104 0 164.5 59t60.5 176v117q-26 -50 -94.5 -85.5t-151.5 -35.5q-57 0 -113.5 14t-112.5 47t-98 81.5t-68.5 125t-26.5 170.5v168q0 94 26.5 170.5t68.5 125t98 81.5t112.5 47t113.5 14q82 0 150.5 -36t95.5 -84v92h215v-1016q0 -101 -28.5 -179.5t-73 -126
t-104.5 -78.5t-117 -42.5t-117 -11.5q-55 0 -109 10.5t-111 37.5t-101 68.5t-75.5 108.5t-39.5 152h217q17 -85 74 -127.5t145 -42.5zM324 643v-160q0 -117 60.5 -175t164.5 -58t164.5 58t60.5 175v160q0 117 -60.5 175.5t-164.5 58.5t-164.5 -58.5t-60.5 -175.5zM621 1169
h-144q-110 0 -187 77.5t-77 187.5h162q0 -43 29.5 -73t72.5 -30h144q43 0 72.5 30t29.5 73h162q0 -110 -77 -187.5t-187 -77.5z" />
    <glyph glyph-name="Gdotaccent" unicode="&#x120;" horiz-adv-x="1236" 
d="M623 1454q219 0 357 -123t155 -336h-220q-16 118 -100 180t-192 62q-55 0 -106.5 -17.5t-94.5 -51t-68.5 -91t-25.5 -129.5v-463q0 -73 25.5 -130t68.5 -90.5t94 -50.5t107 -17t107 17t94 50.5t68.5 90.5t25.5 130v93h-295v210h514v-303q0 -230 -141 -367.5t-373 -137.5
t-373 137.5t-141 367.5v463q0 231 141.5 368.5t372.5 137.5zM733 1747v-219h-219v219h219z" />
    <glyph glyph-name="gdotaccent" unicode="&#x121;" horiz-adv-x="1130" 
d="M549 -190q104 0 164.5 59t60.5 176v117q-26 -50 -94.5 -85.5t-151.5 -35.5q-57 0 -113.5 14t-112.5 47t-98 81.5t-68.5 125t-26.5 170.5v168q0 94 26.5 170.5t68.5 125t98 81.5t112.5 47t113.5 14q82 0 150.5 -36t95.5 -84v92h215v-1016q0 -101 -28.5 -179.5t-73 -126
t-104.5 -78.5t-117 -42.5t-117 -11.5q-55 0 -109 10.5t-111 37.5t-101 68.5t-75.5 108.5t-39.5 152h217q17 -85 74 -127.5t145 -42.5zM324 643v-160q0 -117 60.5 -175t164.5 -58t164.5 58t60.5 175v160q0 117 -60.5 175.5t-164.5 58.5t-164.5 -58.5t-60.5 -175.5zM657 1411
v-219h-215v219h215z" />
    <glyph glyph-name="uni0122" unicode="&#x122;" horiz-adv-x="1236" 
d="M623 1454q219 0 357 -123t155 -336h-220q-16 118 -100 180t-192 62q-55 0 -106.5 -17.5t-94.5 -51t-68.5 -91t-25.5 -129.5v-463q0 -73 25.5 -130t68.5 -90.5t94 -50.5t107 -17t107 17t94 50.5t68.5 90.5t25.5 130v93h-295v210h514v-303q0 -230 -141 -367.5t-373 -137.5
t-373 137.5t-141 367.5v463q0 231 141.5 368.5t372.5 137.5zM496 -356v254h254v-254l-60 -193h-162l60 193h-92z" />
    <glyph glyph-name="uni0123" unicode="&#x123;" horiz-adv-x="1130" 
d="M549 -190q104 0 164.5 59t60.5 176v117q-26 -50 -94.5 -85.5t-151.5 -35.5q-57 0 -113.5 14t-112.5 47t-98 81.5t-68.5 125t-26.5 170.5v168q0 94 26.5 170.5t68.5 125t98 81.5t112.5 47t113.5 14q82 0 150.5 -36t95.5 -84v92h215v-1016q0 -101 -28.5 -179.5t-73 -126
t-104.5 -78.5t-117 -42.5t-117 -11.5q-55 0 -109 10.5t-111 37.5t-101 68.5t-75.5 108.5t-39.5 152h217q17 -85 74 -127.5t145 -42.5zM324 643v-160q0 -117 60.5 -175t164.5 -58t164.5 58t60.5 175v160q0 117 -60.5 175.5t-164.5 58.5t-164.5 -58.5t-60.5 -175.5zM676 1423
v-254h-254v254l59 193h162l-59 -193h92z" />
    <glyph glyph-name="Hcircumflex" unicode="&#x124;" horiz-adv-x="1331" 
d="M961 831v603h219v-1434h-219v614h-590v-614h-219v1434h219v-603h590zM756 1526l-90 73l-91 -73h-266l271 223h172l270 -223h-266z" />
    <glyph glyph-name="hcircumflex" unicode="&#x125;" horiz-adv-x="1148" 
d="M356 643v-643h-215v1434h215v-469q27 48 95.5 84t150.5 36q57 0 113.5 -14t112.5 -47t98.5 -81.5t69 -125t26.5 -170.5v-647h-215v643q0 117 -60.5 175.5t-164.5 58.5t-165 -58.5t-61 -175.5zM668 1790l270 -264h-240l-116 114l-117 -114h-240l271 264h172z" />
    <glyph glyph-name="Hbar" unicode="&#x126;" horiz-adv-x="1331" 
d="M371 1434v-228h590v228h219v-1434h-219v614h-590v-614h-219v1434h219zM961 831v230h-590v-230h590z" />
    <glyph glyph-name="hbar" unicode="&#x127;" horiz-adv-x="1150" 
d="M358 643v-643h-215v1182h-143v135h143v117h215v-117h246v-135h-246v-217q27 48 95.5 84t150.5 36q57 0 113.5 -14t112.5 -47t98.5 -81.5t69 -125t26.5 -170.5v-647h-215v643q0 117 -60.5 175.5t-164.5 58.5t-165 -58.5t-61 -175.5z" />
    <glyph glyph-name="Itilde" unicode="&#x128;" horiz-adv-x="522" 
d="M371 1434v-1434h-219v1434h219zM139 1759q68 0 107 -16l78 -33q28 -12 41 -12q41 0 61 57h186q-12 -72 -39.5 -122.5t-63 -73.5t-65 -32t-59.5 -9q-67 0 -106 16l-78 33q-28 12 -41 12q-42 0 -62 -57h-186q12 72 39.5 122.5t63 73.5t65 32t59.5 9z" />
    <glyph glyph-name="itilde" unicode="&#x129;" horiz-adv-x="497" 
d="M356 1057v-1057h-215v1057h215zM72 1186h-172q12 72 39.5 122.5t63 73.5t65 32t59.5 9q62 0 106 -18l78 -33q33 -14 56 -14q40 0 61 61h172q-12 -72 -39.5 -122.5t-63 -73.5t-65 -32t-59.5 -9q-63 0 -107 18l-78 33q-33 14 -55 14q-40 0 -61 -61z" />
    <glyph glyph-name="Imacron" unicode="&#x12a;" horiz-adv-x="522" 
d="M371 1434v-1434h-219v1434h219zM-68 1765h660v-174h-660v174z" />
    <glyph glyph-name="imacron" unicode="&#x12b;" horiz-adv-x="497" 
d="M356 1057v-1057h-215v1057h215zM-80 1389h660v-175h-660v175z" />
    <glyph glyph-name="Ibreve" unicode="&#x12c;" horiz-adv-x="522" 
d="M371 1434v-1434h-219v1434h219zM432 1749h166q0 -94 -64.5 -158.5t-158.5 -64.5h-225q-94 0 -159 64.5t-65 158.5h166q0 -25 16.5 -41t41.5 -16h225q25 0 41 16t16 41z" />
    <glyph glyph-name="ibreve" unicode="&#x12d;" horiz-adv-x="497" 
d="M356 1057v-1057h-215v1057h215zM322 1169h-144q-110 0 -187 77.5t-77 187.5h162q0 -43 29.5 -73t72.5 -30h144q43 0 72.5 30t29.5 73h162q0 -110 -77 -187.5t-187 -77.5z" />
    <glyph glyph-name="Iogonek" unicode="&#x12e;" horiz-adv-x="522" 
d="M371 1434v-1434h-219v1434h219zM154 0h219q-42 -30 -64.5 -47.5t-50.5 -42t-40.5 -44.5t-12.5 -38q0 -49 55 -49q46 0 113 35v-164q-88 -37 -180 -37q-89 0 -148 42.5t-59 133.5q0 125 168 211z" />
    <glyph glyph-name="iogonek" unicode="&#x12f;" horiz-adv-x="497" 
d="M356 1434v-220h-215v220h215zM356 1057v-1057h-215v1057h215zM143 0h215q-42 -30 -64.5 -47.5t-50.5 -42t-40.5 -44.5t-12.5 -38q0 -53 56 -53q44 0 112 35v-160q-88 -37 -180 -37q-88 0 -145.5 42t-57.5 134q0 125 168 211z" />
    <glyph glyph-name="Idot" unicode="&#x130;" horiz-adv-x="522" 
d="M371 1434v-1434h-219v1434h219zM371 1747v-219h-219v219h219z" />
    <glyph glyph-name="dotlessi" unicode="&#x131;" horiz-adv-x="497" 
d="M356 1057v-1057h-215v1057h215z" />
    <glyph glyph-name="Jcircumflex" unicode="&#x134;" horiz-adv-x="972" 
d="M16 410h220q5 -99 52 -156t140 -57q95 0 144 60.5t49 162.5v1014h219v-1014q0 -219 -107 -329.5t-305 -110.5q-403 0 -412 430zM819 1526l-90 73l-90 -73h-266l270 223h172l270 -223h-266z" />
    <glyph glyph-name="jcircumflex" unicode="&#x135;" horiz-adv-x="497" 
d="M141 -70v1127h215v-1182q0 -127 -60.5 -189.5t-191.5 -62.5h-94v207h33q62 0 80 19.5t18 80.5zM334 1434l270 -265h-239l-117 115l-117 -115h-240l271 265h172z" />
    <glyph glyph-name="uni0136" unicode="&#x136;" horiz-adv-x="1292" 
d="M371 416v-416h-219v1434h219v-701l596 701h270l-502 -590l557 -844h-258l-444 674zM555 -356v254h254v-254l-59 -193h-162l59 193h-92z" />
    <glyph glyph-name="uni0137" unicode="&#x137;" horiz-adv-x="1077" 
d="M356 1434v-807l396 430h260l-381 -414l438 -643h-250l-332 487l-131 -143v-344h-215v1434h215zM440 -356v254h254v-254l-59 -193h-162l59 193h-92z" />
    <glyph glyph-name="Lacute" unicode="&#x139;" horiz-adv-x="1015" 
d="M152 0v1434h219v-1217h626v-217h-845zM281 1749h280l-262 -223h-186z" />
    <glyph glyph-name="lacute" unicode="&#x13a;" horiz-adv-x="557" 
d="M352 1434v-1127q0 -61 18.5 -80.5t80.5 -19.5h32v-207h-94q-131 0 -191.5 62.5t-60.5 189.5v1182h215zM246 1790h276l-241 -264h-172z" />
    <glyph glyph-name="uni013B" unicode="&#x13b;" horiz-adv-x="1015" 
d="M152 0v1434h219v-1217h626v-217h-845zM446 -356v254h254v-254l-59 -193h-162l60 193h-93z" />
    <glyph glyph-name="uni013C" unicode="&#x13c;" horiz-adv-x="557" 
d="M352 1434v-1127q0 -61 18.5 -80.5t80.5 -19.5h32v-207h-94q-131 0 -191.5 62.5t-60.5 189.5v1182h215zM182 -356v254h254v-254l-59 -193h-162l59 193h-92z" />
    <glyph glyph-name="Lcaron" unicode="&#x13d;" horiz-adv-x="1015" 
d="M897 1434l-152 -324h-165l57 324h260zM152 0v1434h219v-1217h626v-217h-845z" />
    <glyph glyph-name="lcaron" unicode="&#x13e;" horiz-adv-x="557" 
d="M727 1434l-162 -324h-151l57 324h256zM352 1434v-1127q0 -61 18.5 -80.5t80.5 -19.5h32v-207h-94q-131 0 -191.5 62.5t-60.5 189.5v1182h215z" />
    <glyph glyph-name="Ldot" unicode="&#x13f;" horiz-adv-x="1015" 
d="M152 0v1434h219v-1217h626v-217h-845zM868 938v-219h-219v219h219z" />
    <glyph glyph-name="ldot" unicode="&#x140;" horiz-adv-x="671" 
d="M352 1434v-1127q0 -61 18.5 -80.5t80.5 -19.5h32v-207h-94q-131 0 -191.5 62.5t-60.5 189.5v1182h215zM690 934v-219h-215v219h215z" />
    <glyph glyph-name="Lslash" unicode="&#x141;" horiz-adv-x="1036" 
d="M172 0v535l-141 -78v170l141 78v729h219v-607l295 166v-172l-295 -164v-440h627v-217h-846z" />
    <glyph glyph-name="lslash" unicode="&#x142;" horiz-adv-x="598" 
d="M373 1434v-523l131 74v-156l-131 -73v-449q0 -61 18 -80.5t80 -19.5h33v-207h-94q-131 0 -191.5 62.5t-60.5 189.5v383l-131 -72v154l131 74v643h215z" />
    <glyph glyph-name="Nacute" unicode="&#x143;" horiz-adv-x="1331" 
d="M1180 1434v-1434h-219l-590 1028v-1028h-219v1434h219l590 -1028v1028h219zM684 1749h281l-263 -223h-186z" />
    <glyph glyph-name="nacute" unicode="&#x144;" horiz-adv-x="1148" 
d="M356 643v-643h-215v1057h215v-92q27 48 95.5 84t150.5 36q57 0 113.5 -14t112.5 -47t98.5 -81.5t69 -125t26.5 -170.5v-647h-215v643q0 117 -60.5 175.5t-164.5 58.5t-165 -58.5t-61 -175.5zM582 1434h276l-242 -265h-172z" />
    <glyph glyph-name="uni0145" unicode="&#x145;" horiz-adv-x="1331" 
d="M1180 1434v-1434h-219l-590 1028v-1028h-219v1434h219l590 -1028v1028h219zM539 -356v254h254v-254l-60 -193h-162l60 193h-92z" />
    <glyph glyph-name="uni0146" unicode="&#x146;" horiz-adv-x="1148" 
d="M356 643v-643h-215v1057h215v-92q27 48 95.5 84t150.5 36q57 0 113.5 -14t112.5 -47t98.5 -81.5t69 -125t26.5 -170.5v-647h-215v643q0 117 -60.5 175.5t-164.5 58.5t-165 -58.5t-61 -175.5zM455 -356v254h254v-254l-60 -193h-162l60 193h-92z" />
    <glyph glyph-name="Ncaron" unicode="&#x147;" horiz-adv-x="1331" 
d="M1180 1434v-1434h-219l-590 1028v-1028h-219v1434h219l590 -1028v1028h219zM666 1675l90 74h266l-270 -223h-172l-271 223h266z" />
    <glyph glyph-name="ncaron" unicode="&#x148;" horiz-adv-x="1148" 
d="M356 643v-643h-215v1057h215v-92q27 48 95.5 84t150.5 36q57 0 113.5 -14t112.5 -47t98.5 -81.5t69 -125t26.5 -170.5v-647h-215v643q0 117 -60.5 175.5t-164.5 58.5t-165 -58.5t-61 -175.5zM938 1434l-270 -265h-172l-271 265h240l117 -115l116 115h240z" />
    <glyph glyph-name="Eng" unicode="&#x14a;" horiz-adv-x="1331" 
d="M768 -377h-102v217h102q82 0 128.5 44.5t59.5 121.5l-585 1022v-1028h-219v1434h219l590 -1028v1028h219v-1371q0 -219 -107 -329.5t-305 -110.5z" />
    <glyph glyph-name="eng" unicode="&#x14b;" horiz-adv-x="1148" 
d="M1022 647v-772q0 -127 -60.5 -189.5t-191.5 -62.5h-94v207h33q62 0 80 19.5t18 80.5v713q0 117 -60.5 175.5t-164.5 58.5t-165 -58.5t-61 -175.5v-643h-215v1057h215v-92q27 48 95.5 84t150.5 36q57 0 113.5 -14t112.5 -47t98.5 -81.5t69 -125t26.5 -170.5z" />
    <glyph glyph-name="Omacron" unicode="&#x14c;" horiz-adv-x="1245" 
d="M918 485v463q0 72 -25.5 129.5t-68.5 91t-94.5 51t-106.5 17.5t-106.5 -17.5t-94.5 -51t-68.5 -91t-25.5 -129.5v-463q0 -73 25.5 -130t68.5 -90.5t94 -50.5t107 -17t107 17t94 50.5t68.5 90.5t25.5 130zM109 485v463q0 231 141.5 368.5t372.5 137.5t372.5 -137.5
t141.5 -368.5v-463q0 -230 -141 -367.5t-373 -137.5t-373 137.5t-141 367.5zM293 1726h659v-178h-659v178z" />
    <glyph glyph-name="omacron" unicode="&#x14d;" horiz-adv-x="1105" 
d="M778 422v221q0 118 -60.5 177t-164.5 59t-164.5 -59t-60.5 -177v-221q0 -118 60.5 -177t164.5 -59t164.5 59t60.5 177zM113 418v229q0 101 28.5 179.5t73 126t104.5 78.5t117 42.5t117 11.5t117 -11.5t117 -42.5t104.5 -78.5t73 -126t28.5 -179.5v-229
q0 -101 -28.5 -179.5t-73 -126t-104.5 -78.5t-117 -42.5t-117 -11.5t-117 11.5t-117 42.5t-104.5 78.5t-73 126t-28.5 179.5zM223 1389h660v-175h-660v175z" />
    <glyph glyph-name="Obreve" unicode="&#x14e;" horiz-adv-x="1245" 
d="M918 485v463q0 72 -25.5 129.5t-68.5 91t-94.5 51t-106.5 17.5t-106.5 -17.5t-94.5 -51t-68.5 -91t-25.5 -129.5v-463q0 -73 25.5 -130t68.5 -90.5t94 -50.5t107 -17t107 17t94 50.5t68.5 90.5t25.5 130zM109 485v463q0 231 141.5 368.5t372.5 137.5t372.5 -137.5
t141.5 -368.5v-463q0 -230 -141 -367.5t-373 -137.5t-373 137.5t-141 367.5zM793 1749h165q0 -94 -64.5 -158.5t-158.5 -64.5h-225q-94 0 -158.5 64.5t-64.5 158.5h166q0 -25 16 -41t41 -16h225q25 0 41.5 16t16.5 41z" />
    <glyph glyph-name="obreve" unicode="&#x14f;" horiz-adv-x="1105" 
d="M778 422v221q0 118 -60.5 177t-164.5 59t-164.5 -59t-60.5 -177v-221q0 -118 60.5 -177t164.5 -59t164.5 59t60.5 177zM113 418v229q0 101 28.5 179.5t73 126t104.5 78.5t117 42.5t117 11.5t117 -11.5t117 -42.5t104.5 -78.5t73 -126t28.5 -179.5v-229
q0 -101 -28.5 -179.5t-73 -126t-104.5 -78.5t-117 -42.5t-117 -11.5t-117 11.5t-117 42.5t-104.5 78.5t-73 126t-28.5 179.5zM625 1169h-144q-110 0 -187 77.5t-77 187.5h162q0 -43 29.5 -73t72.5 -30h144q43 0 72.5 30t29.5 73h162q0 -110 -77 -187.5t-187 -77.5z" />
    <glyph glyph-name="Ohungarumlaut" unicode="&#x150;" horiz-adv-x="1245" 
d="M918 485v463q0 72 -25.5 129.5t-68.5 91t-94.5 51t-106.5 17.5t-106.5 -17.5t-94.5 -51t-68.5 -91t-25.5 -129.5v-463q0 -73 25.5 -130t68.5 -90.5t94 -50.5t107 -17t107 17t94 50.5t68.5 90.5t25.5 130zM109 485v463q0 231 141.5 368.5t372.5 137.5t372.5 -137.5
t141.5 -368.5v-463q0 -230 -141 -367.5t-373 -137.5t-373 137.5t-141 367.5zM508 1749h270l-241 -223h-177zM866 1749h271l-242 -223h-176z" />
    <glyph glyph-name="ohungarumlaut" unicode="&#x151;" horiz-adv-x="1105" 
d="M778 422v221q0 118 -60.5 177t-164.5 59t-164.5 -59t-60.5 -177v-221q0 -118 60.5 -177t164.5 -59t164.5 59t60.5 177zM113 418v229q0 101 28.5 179.5t73 126t104.5 78.5t117 42.5t117 11.5t117 -11.5t117 -42.5t104.5 -78.5t73 -126t28.5 -179.5v-229
q0 -101 -28.5 -179.5t-73 -126t-104.5 -78.5t-117 -42.5t-117 -11.5t-117 11.5t-117 42.5t-104.5 78.5t-73 126t-28.5 179.5zM369 1434h266l-221 -265h-162zM727 1434h266l-221 -265h-162z" />
    <glyph glyph-name="OE" unicode="&#x152;" horiz-adv-x="1882" 
d="M918 485v463q0 72 -25.5 129.5t-68.5 91t-94.5 51t-106.5 17.5t-106.5 -17.5t-94.5 -51t-68.5 -91t-25.5 -129.5v-463q0 -73 25.5 -130t68.5 -90.5t94 -50.5t107 -17t107 17t94 50.5t68.5 90.5t25.5 130zM918 0v82q-108 -102 -295 -102q-232 0 -373 137.5t-141 367.5v463
q0 231 141.5 368.5t372.5 137.5q187 0 295 -102v82h845v-217h-626v-386h626v-217h-626v-397h626v-217h-845z" />
    <glyph glyph-name="oe" unicode="&#x153;" horiz-adv-x="1761" 
d="M993 457v-35q0 -117 61 -176.5t165 -59.5q168 0 215 150h219q-14 -100 -59.5 -173t-109.5 -111t-129.5 -55t-135.5 -17q-218 0 -334 149q-108 -149 -332 -149q-60 0 -117 11.5t-117 42.5t-104.5 78.5t-73 126t-28.5 179.5v229q0 101 28.5 179.5t73 126t104.5 78.5
t117 42.5t117 11.5q224 0 332 -149q116 149 334 149q60 0 117 -11.5t117 -42.5t104.5 -78.5t73 -126t28.5 -179.5v-190h-666zM778 422v221q0 118 -60.5 177t-164.5 59t-164.5 -59t-60.5 -177v-221q0 -118 60.5 -177t164.5 -59t164.5 59t60.5 177zM1219 879
q-103 0 -164.5 -59t-61.5 -173h451q-1 114 -62 173t-163 59z" />
    <glyph glyph-name="Racute" unicode="&#x154;" horiz-adv-x="1249" 
d="M594 616h-223v-616h-219v1434h563q213 0 326.5 -109t113.5 -301q0 -161 -82 -264.5t-239 -132.5l368 -627h-246zM932 1022q0 93 -58 144t-159 51h-344v-390h344q101 0 159 51t58 144zM600 1749h281l-263 -223h-186z" />
    <glyph glyph-name="racute" unicode="&#x155;" horiz-adv-x="706" 
d="M684 866h-102q-104 0 -165 -58t-61 -175v-633h-215v1057h215v-103q27 48 95.5 84.5t150.5 36.5h82v-209zM412 1434h276l-242 -265h-172z" />
    <glyph glyph-name="uni0156" unicode="&#x156;" horiz-adv-x="1249" 
d="M594 616h-223v-616h-219v1434h563q213 0 326.5 -109t113.5 -301q0 -161 -82 -264.5t-239 -132.5l368 -627h-246zM932 1022q0 93 -58 144t-159 51h-344v-390h344q101 0 159 51t58 144zM516 -356v254h254v-254l-59 -193h-162l59 193h-92z" />
    <glyph glyph-name="uni0157" unicode="&#x157;" horiz-adv-x="706" 
d="M684 866h-102q-104 0 -165 -58t-61 -175v-633h-215v1057h215v-103q27 48 95.5 84.5t150.5 36.5h82v-209zM123 -356v254h254v-254l-60 -193h-161l59 193h-92z" />
    <glyph glyph-name="Rcaron" unicode="&#x158;" horiz-adv-x="1249" 
d="M594 616h-223v-616h-219v1434h563q213 0 326.5 -109t113.5 -301q0 -161 -82 -264.5t-239 -132.5l368 -627h-246zM932 1022q0 93 -58 144t-159 51h-344v-390h344q101 0 159 51t58 144zM614 1675l91 74h266l-271 -223h-172l-270 223h266z" />
    <glyph glyph-name="rcaron" unicode="&#x159;" horiz-adv-x="706" 
d="M684 866h-102q-104 0 -165 -58t-61 -175v-633h-215v1057h215v-103q27 48 95.5 84.5t150.5 36.5h82v-209zM770 1434l-270 -265h-172l-271 265h240l117 -115l116 115h240z" />
    <glyph glyph-name="Sacute" unicode="&#x15a;" 
d="M590 -20q-239 0 -375 127.5t-154 336.5h224q23 -121 102 -184t207 -63q111 0 176.5 49t65.5 133q0 81 -48 131t-155 76l-254 61q-140 35 -217.5 141t-77.5 261q0 101 36.5 179.5t100 127t146.5 73.5t180 25q211 0 336.5 -108.5t152.5 -294.5h-223q-23 88 -91.5 137
t-172.5 49q-123 0 -182.5 -50.5t-59.5 -137.5q0 -152 162 -191l246 -59q174 -42 259 -145t85 -279t-125 -285.5t-344 -109.5zM578 1749h280l-262 -223h-186z" />
    <glyph glyph-name="sacute" unicode="&#x15b;" horiz-adv-x="987" 
d="M518 -20q-192 0 -317.5 92t-132.5 266h221q11 -75 75.5 -113.5t155.5 -38.5q174 0 174 111q0 49 -34.5 73t-98.5 38l-201 51q-268 64 -268 315q0 150 107 230.5t276 80.5q374 0 406 -337h-226q-11 66 -63.5 98.5t-130.5 32.5q-60 0 -106 -26t-46 -83q0 -42 32 -63.5
t87 -34.5l195 -49q150 -39 219 -112.5t69 -219.5q0 -150 -108 -230.5t-285 -80.5zM489 1434h277l-242 -265h-172z" />
    <glyph glyph-name="Scircumflex" unicode="&#x15c;" 
d="M590 -20q-239 0 -375 127.5t-154 336.5h224q23 -121 102 -184t207 -63q111 0 176.5 49t65.5 133q0 81 -48 131t-155 76l-254 61q-140 35 -217.5 141t-77.5 261q0 101 36.5 179.5t100 127t146.5 73.5t180 25q211 0 336.5 -108.5t152.5 -294.5h-223q-23 88 -91.5 137
t-172.5 49q-123 0 -182.5 -50.5t-59.5 -137.5q0 -152 162 -191l246 -59q174 -42 259 -145t85 -279t-125 -285.5t-344 -109.5zM649 1526l-90 73l-90 -73h-266l270 223h172l270 -223h-266z" />
    <glyph glyph-name="scircumflex" unicode="&#x15d;" horiz-adv-x="987" 
d="M518 -20q-192 0 -317.5 92t-132.5 266h221q11 -75 75.5 -113.5t155.5 -38.5q174 0 174 111q0 49 -34.5 73t-98.5 38l-201 51q-268 64 -268 315q0 150 107 230.5t276 80.5q374 0 406 -337h-226q-11 66 -63.5 98.5t-130.5 32.5q-60 0 -106 -26t-46 -83q0 -42 32 -63.5
t87 -34.5l195 -49q150 -39 219 -112.5t69 -219.5q0 -150 -108 -230.5t-285 -80.5zM575 1434l271 -265h-240l-117 115l-116 -115h-240l270 265h172z" />
    <glyph glyph-name="Scedilla" unicode="&#x15e;" 
d="M590 -20q-239 0 -375 127.5t-154 336.5h224q23 -121 102 -184t207 -63q111 0 176.5 49t65.5 133q0 81 -48 131t-155 76l-254 61q-140 35 -217.5 141t-77.5 261q0 101 36.5 179.5t100 127t146.5 73.5t180 25q211 0 336.5 -108.5t152.5 -294.5h-223q-23 88 -91.5 137
t-172.5 49q-123 0 -182.5 -50.5t-59.5 -137.5q0 -152 162 -191l246 -59q174 -42 259 -145t85 -279t-125 -285.5t-344 -109.5zM391 -324l123 324h191l-78 -324h-236z" />
    <glyph glyph-name="scedilla" unicode="&#x15f;" horiz-adv-x="987" 
d="M518 -20q-192 0 -317.5 92t-132.5 266h221q11 -75 75.5 -113.5t155.5 -38.5q174 0 174 111q0 49 -34.5 73t-98.5 38l-201 51q-268 64 -268 315q0 150 107 230.5t276 80.5q374 0 406 -337h-226q-11 66 -63.5 98.5t-130.5 32.5q-60 0 -106 -26t-46 -83q0 -42 32 -63.5
t87 -34.5l195 -49q150 -39 219 -112.5t69 -219.5q0 -150 -108 -230.5t-285 -80.5zM303 -324l133 324h176l-77 -324h-232z" />
    <glyph glyph-name="Scaron" unicode="&#x160;" 
d="M590 -20q-239 0 -375 127.5t-154 336.5h224q23 -121 102 -184t207 -63q111 0 176.5 49t65.5 133q0 81 -48 131t-155 76l-254 61q-140 35 -217.5 141t-77.5 261q0 101 36.5 179.5t100 127t146.5 73.5t180 25q211 0 336.5 -108.5t152.5 -294.5h-223q-23 88 -91.5 137
t-172.5 49q-123 0 -182.5 -50.5t-59.5 -137.5q0 -152 162 -191l246 -59q174 -42 259 -145t85 -279t-125 -285.5t-344 -109.5zM559 1675l90 74h266l-270 -223h-172l-270 223h266z" />
    <glyph glyph-name="scaron" unicode="&#x161;" horiz-adv-x="987" 
d="M518 -20q-192 0 -317.5 92t-132.5 266h221q11 -75 75.5 -113.5t155.5 -38.5q174 0 174 111q0 49 -34.5 73t-98.5 38l-201 51q-268 64 -268 315q0 150 107 230.5t276 80.5q374 0 406 -337h-226q-11 66 -63.5 98.5t-130.5 32.5q-60 0 -106 -26t-46 -83q0 -42 32 -63.5
t87 -34.5l195 -49q150 -39 219 -112.5t69 -219.5q0 -150 -108 -230.5t-285 -80.5zM846 1434l-271 -265h-172l-270 265h240l116 -115l117 115h240z" />
    <glyph glyph-name="uni0162" unicode="&#x162;" horiz-adv-x="1058" 
d="M1042 1217h-403v-1217h-219v1217h-404v217h1026v-217zM401 -356v254h254v-254l-59 -193h-162l60 193h-93z" />
    <glyph glyph-name="uni0163" unicode="&#x163;" horiz-adv-x="735" 
d="M406 854v-547q0 -61 18 -80.5t80 -19.5h162v-207h-224q-131 0 -191.5 62.5t-60.5 189.5v602h-149v203h149v239h216v-239h260v-203h-260zM301 -356v254h254v-254l-59 -193h-162l59 193h-92z" />
    <glyph glyph-name="Tcaron" unicode="&#x164;" horiz-adv-x="1058" 
d="M1042 1217h-403v-1217h-219v1217h-404v217h1026v-217zM528 1675l90 74h267l-271 -223h-172l-270 223h266z" />
    <glyph glyph-name="tcaron" unicode="&#x165;" horiz-adv-x="735" 
d="M819 1434l-141 -265h-152l37 265h256zM406 854v-547q0 -61 18 -80.5t80 -19.5h162v-207h-224q-131 0 -191.5 62.5t-60.5 189.5v602h-149v203h149v239h216v-239h260v-203h-260z" />
    <glyph glyph-name="Tbar" unicode="&#x166;" horiz-adv-x="1058" 
d="M1042 1217h-403v-426h260v-146h-260v-645h-219v645h-260v146h260v426h-404v217h1026v-217z" />
    <glyph glyph-name="tbar" unicode="&#x167;" horiz-adv-x="735" 
d="M406 854v-205h260v-135h-260v-207q0 -61 18 -80.5t80 -19.5h162v-207h-224q-131 0 -191.5 62.5t-60.5 189.5v262h-149v135h149v205h-149v203h149v239h216v-239h260v-203h-260z" />
    <glyph glyph-name="Utilde" unicode="&#x168;" horiz-adv-x="1294" 
d="M942 485v949h219v-949q0 -230 -141 -367.5t-373 -137.5t-373 137.5t-141 367.5v949h219v-949q0 -73 25.5 -130t68.5 -90.5t94 -50.5t107 -17t107 17t94 50.5t68.5 90.5t25.5 130zM524 1759q68 0 107 -16l78 -33q28 -12 41 -12q41 0 61 57h186q-12 -72 -39.5 -122.5
t-63 -73.5t-65 -32t-59.5 -9q-67 0 -106 16l-78 33q-28 12 -41 12q-42 0 -62 -57h-186q12 72 39.5 122.5t63 73.5t65 32t59.5 9z" />
    <glyph glyph-name="utilde" unicode="&#x169;" 
d="M342 1057v-635q0 -117 59 -175.5t160 -58.5t160 58.5t59 175.5v635h215v-1057h-215v100q-26 -50 -94 -85t-151 -35q-56 0 -112 15.5t-110 49.5t-95 84t-66 124.5t-25 164.5v639h215zM383 1186h-172q12 72 39.5 122.5t63 73.5t65 32t59.5 9q63 0 107 -18l78 -33
q33 -14 55 -14q40 0 61 61h172q-12 -72 -39.5 -122.5t-63 -73.5t-65 -32t-59.5 -9q-62 0 -106 18l-78 33q-33 14 -56 14q-40 0 -61 -61z" />
    <glyph glyph-name="Umacron" unicode="&#x16a;" horiz-adv-x="1294" 
d="M942 485v949h219v-949q0 -230 -141 -367.5t-373 -137.5t-373 137.5t-141 367.5v949h219v-949q0 -73 25.5 -130t68.5 -90.5t94 -50.5t107 -17t107 17t94 50.5t68.5 90.5t25.5 130zM317 1726h660v-178h-660v178z" />
    <glyph glyph-name="umacron" unicode="&#x16b;" 
d="M342 1057v-635q0 -117 59 -175.5t160 -58.5t160 58.5t59 175.5v635h215v-1057h-215v100q-26 -50 -94 -85t-151 -35q-56 0 -112 15.5t-110 49.5t-95 84t-66 124.5t-25 164.5v639h215zM231 1389h660v-175h-660v175z" />
    <glyph glyph-name="Ubreve" unicode="&#x16c;" horiz-adv-x="1294" 
d="M942 485v949h219v-949q0 -230 -141 -367.5t-373 -137.5t-373 137.5t-141 367.5v949h219v-949q0 -73 25.5 -130t68.5 -90.5t94 -50.5t107 -17t107 17t94 50.5t68.5 90.5t25.5 130zM817 1749h166q0 -94 -64.5 -158.5t-158.5 -64.5h-225q-94 0 -159 64.5t-65 158.5h166
q0 -25 16.5 -41t41.5 -16h225q25 0 41 16t16 41z" />
    <glyph glyph-name="ubreve" unicode="&#x16d;" 
d="M342 1057v-635q0 -117 59 -175.5t160 -58.5t160 58.5t59 175.5v635h215v-1057h-215v100q-26 -50 -94 -85t-151 -35q-56 0 -112 15.5t-110 49.5t-95 84t-66 124.5t-25 164.5v639h215zM633 1169h-144q-110 0 -187 77.5t-77 187.5h162q0 -43 29.5 -73t72.5 -30h144
q43 0 72.5 30t29.5 73h162q0 -110 -77 -187.5t-187 -77.5z" />
    <glyph glyph-name="Uring" unicode="&#x16e;" horiz-adv-x="1294" 
d="M942 485v949h219v-949q0 -230 -141 -367.5t-373 -137.5t-373 137.5t-141 367.5v949h219v-949q0 -73 25.5 -130t68.5 -90.5t94 -50.5t107 -17t107 17t94 50.5t68.5 90.5t25.5 130zM496 1636q0 63 44 108.5t107 45.5t108.5 -45.5t45.5 -108.5t-45.5 -107t-108.5 -44
t-107 44t-44 107zM604 1636q0 -19 12 -31t31 -12t31 12t12 31t-12 31t-31 12t-31 -12t-12 -31z" />
    <glyph glyph-name="uring" unicode="&#x16f;" 
d="M342 1057v-635q0 -117 59 -175.5t160 -58.5t160 58.5t59 175.5v635h215v-1057h-215v100q-26 -50 -94 -85t-151 -35q-56 0 -112 15.5t-110 49.5t-95 84t-66 124.5t-25 164.5v639h215zM410 1300q0 63 44 108.5t107 45.5t108.5 -45.5t45.5 -108.5t-45.5 -107t-108.5 -44
t-107 44t-44 107zM514 1300q0 -20 13.5 -33.5t33.5 -13.5t33.5 13.5t13.5 33.5t-13.5 34t-33.5 14t-33.5 -14t-13.5 -34z" />
    <glyph glyph-name="Uhungarumlaut" unicode="&#x170;" horiz-adv-x="1294" 
d="M942 485v949h219v-949q0 -230 -141 -367.5t-373 -137.5t-373 137.5t-141 367.5v949h219v-949q0 -73 25.5 -130t68.5 -90.5t94 -50.5t107 -17t107 17t94 50.5t68.5 90.5t25.5 130zM489 1749h271l-242 -223h-176zM848 1749h270l-241 -223h-177z" />
    <glyph glyph-name="uhungarumlaut" unicode="&#x171;" 
d="M342 1057v-635q0 -117 59 -175.5t160 -58.5t160 58.5t59 175.5v635h215v-1057h-215v100q-26 -50 -94 -85t-151 -35q-56 0 -112 15.5t-110 49.5t-95 84t-66 124.5t-25 164.5v639h215zM371 1434h266l-221 -265h-162zM729 1434h266l-221 -265h-162z" />
    <glyph glyph-name="Uogonek" unicode="&#x172;" horiz-adv-x="1294" 
d="M942 485v949h219v-949q0 -133 -48 -237t-136 -168q-12 -9 -58.5 -40.5t-76 -53.5t-67 -53t-56.5 -57.5t-19 -47.5q0 -49 56 -49q44 0 112 35v-164q-88 -37 -180 -37q-89 0 -148 42.5t-59 133.5q0 112 131 193q-219 12 -349 146.5t-130 356.5v949h219v-949
q0 -73 25.5 -130t68.5 -90.5t94 -50.5t107 -17t107 17t94 50.5t68.5 90.5t25.5 130z" />
    <glyph glyph-name="uogonek" unicode="&#x173;" 
d="M342 1057v-635q0 -117 59 -175.5t160 -58.5t160 58.5t59 175.5v635h215v-1057h-215v100q-26 -50 -94 -85t-151 -35q-56 0 -112 15.5t-110 49.5t-95 84t-66 124.5t-25 164.5v639h215zM780 0h215q-42 -30 -64.5 -47.5t-50.5 -42t-40.5 -44.5t-12.5 -38q0 -53 56 -53
q44 0 112 35v-160q-88 -37 -180 -37q-88 0 -145.5 42t-57.5 134q0 125 168 211z" />
    <glyph glyph-name="Wcircumflex" unicode="&#x174;" horiz-adv-x="1523" 
d="M1010 0l-248 903l-248 -903h-207l-264 1434h215l182 -1004l219 799h205l219 -799l183 1004h215l-264 -1434h-207zM852 1526l-90 73l-90 -73h-266l270 223h172l270 -223h-266z" />
    <glyph glyph-name="wcircumflex" unicode="&#x175;" horiz-adv-x="1409" 
d="M819 1057l180 -719l177 719h219l-279 -1057h-217l-194 776l-195 -776h-217l-279 1057h219l177 -719l180 719h229zM791 1434l270 -265h-240l-116 115l-117 -115h-240l270 265h173z" />
    <glyph glyph-name="Ycircumflex" unicode="&#x176;" horiz-adv-x="1216" 
d="M1223 1434l-506 -887v-547h-219v547l-504 887h242l372 -660l373 660h242zM698 1526l-90 73l-90 -73h-266l270 223h172l271 -223h-267z" />
    <glyph glyph-name="ycircumflex" unicode="&#x177;" horiz-adv-x="974" 
d="M975 1057l-469 -1301q-47 -133 -234 -133h-110v207h43q32 0 52 3.5t33 8t23.5 21t16.5 29t18 45.5l29 77l-377 1043h223l264 -752l265 752h223zM573 1434l271 -265h-240l-117 115l-116 -115h-240l270 265h172z" />
    <glyph glyph-name="Ydieresis" unicode="&#x178;" horiz-adv-x="1216" 
d="M1223 1434l-506 -887v-547h-219v547l-504 887h242l372 -660l373 660h242zM522 1747v-219h-219v219h219zM913 1747v-219h-219v219h219z" />
    <glyph glyph-name="Zacute" unicode="&#x179;" horiz-adv-x="1198" 
d="M1106 0h-1038v217l761 1000h-751v217h1018v-217l-762 -1000h772v-217zM604 1749h281l-262 -223h-187z" />
    <glyph glyph-name="zacute" unicode="&#x17a;" horiz-adv-x="921" 
d="M842 854l-506 -651h520v-203h-788v203l505 651h-491v203h760v-203zM461 1434h276l-241 -265h-172z" />
    <glyph glyph-name="Zdotaccent" unicode="&#x17b;" horiz-adv-x="1198" 
d="M1106 0h-1038v217l761 1000h-751v217h1018v-217l-762 -1000h772v-217zM696 1747v-219h-219v219h219z" />
    <glyph glyph-name="zdotaccent" unicode="&#x17c;" horiz-adv-x="921" 
d="M842 854l-506 -651h520v-203h-788v203l505 651h-491v203h760v-203zM569 1411v-219h-215v219h215z" />
    <glyph glyph-name="Zcaron" unicode="&#x17d;" horiz-adv-x="1198" 
d="M1106 0h-1038v217l761 1000h-751v217h1018v-217l-762 -1000h772v-217zM586 1675l90 74h266l-270 -223h-172l-271 223h267z" />
    <glyph glyph-name="zcaron" unicode="&#x17e;" horiz-adv-x="921" 
d="M842 854l-506 -651h520v-203h-788v203l505 651h-491v203h760v-203zM819 1434l-270 -265h-172l-271 265h240l117 -115l117 115h239z" />
    <glyph glyph-name="uni0218" unicode="&#x218;" 
d="M590 -20q-239 0 -375 127.5t-154 336.5h224q23 -121 102 -184t207 -63q111 0 176.5 49t65.5 133q0 81 -48 131t-155 76l-254 61q-140 35 -217.5 141t-77.5 261q0 101 36.5 179.5t100 127t146.5 73.5t180 25q211 0 336.5 -108.5t152.5 -294.5h-223q-23 88 -91.5 137
t-172.5 49q-123 0 -182.5 -50.5t-59.5 -137.5q0 -152 162 -191l246 -59q174 -42 259 -145t85 -279t-125 -285.5t-344 -109.5zM432 -356v254h254v-254l-59 -193h-162l59 193h-92z" />
    <glyph glyph-name="uni0219" unicode="&#x219;" horiz-adv-x="987" 
d="M518 -20q-192 0 -317.5 92t-132.5 266h221q11 -75 75.5 -113.5t155.5 -38.5q174 0 174 111q0 49 -34.5 73t-98.5 38l-201 51q-268 64 -268 315q0 150 107 230.5t276 80.5q374 0 406 -337h-226q-11 66 -63.5 98.5t-130.5 32.5q-60 0 -106 -26t-46 -83q0 -42 32 -63.5
t87 -34.5l195 -49q150 -39 219 -112.5t69 -219.5q0 -150 -108 -230.5t-285 -80.5zM362 -356v254h254v-254l-59 -193h-162l60 193h-93z" />
    <glyph glyph-name="uni021A" unicode="&#x21a;" horiz-adv-x="1058" 
d="M1042 1217h-403v-1217h-219v1217h-404v217h1026v-217zM401 -356v254h254v-254l-59 -193h-162l60 193h-93z" />
    <glyph glyph-name="uni021B" unicode="&#x21b;" horiz-adv-x="735" 
d="M406 854v-547q0 -61 18 -80.5t80 -19.5h162v-207h-224q-131 0 -191.5 62.5t-60.5 189.5v602h-149v203h149v239h216v-239h260v-203h-260zM301 -356v254h254v-254l-59 -193h-162l59 193h-92z" />
    <glyph glyph-name="uni0232" unicode="&#x232;" horiz-adv-x="1216" 
d="M1223 1434l-506 -887v-547h-219v547l-504 887h242l372 -660l373 660h242zM279 1726h659v-178h-659v178z" />
    <glyph glyph-name="uni0233" unicode="&#x233;" horiz-adv-x="974" 
d="M975 1057l-469 -1301q-47 -133 -234 -133h-110v207h43q32 0 52 3.5t33 8t23.5 21t16.5 29t18 45.5l29 77l-377 1043h223l264 -752l265 752h223zM158 1389h659v-175h-659v175z" />
    <glyph glyph-name="uni0237" unicode="&#x237;" horiz-adv-x="497" 
d="M141 -70v1127h215v-1182q0 -127 -60.5 -189.5t-191.5 -62.5h-94v207h33q62 0 80 19.5t18 80.5z" />
    <glyph glyph-name="circumflex" unicode="&#x2c6;" horiz-adv-x="925" 
d="M549 1434l270 -265h-239l-117 115l-117 -115h-240l271 265h172z" />
    <glyph glyph-name="ring" unicode="&#x2da;" horiz-adv-x="477" 
d="M86 1300q0 63 44.5 108.5t107.5 45.5t108 -45.5t45 -108.5t-45 -107t-108 -44t-107.5 44t-44.5 107zM190 1300q0 -20 14 -33.5t34 -13.5t33.5 13.5t13.5 33.5t-13.5 34t-33.5 14t-34 -14t-14 -34z" />
    <glyph glyph-name="tilde" unicode="&#x2dc;" horiz-adv-x="925" 
d="M285 1186h-172q12 72 39.5 122.5t63 73.5t65 32t59.5 9q62 0 106 -18l78 -33q33 -14 56 -14q40 0 61 61h172q-12 -72 -39.5 -122.5t-63 -73.5t-65 -32t-59.5 -9q-63 0 -107 18l-78 33q-33 14 -55 14q-40 0 -61 -61z" />
    <glyph glyph-name="Wgrave" unicode="&#x1e80;" horiz-adv-x="1523" 
d="M1010 0l-248 903l-248 -903h-207l-264 1434h215l182 -1004l219 799h205l219 -799l183 1004h215l-264 -1434h-207zM463 1749h280l168 -223h-186z" />
    <glyph glyph-name="wgrave" unicode="&#x1e81;" horiz-adv-x="1409" 
d="M819 1057l180 -719l177 719h219l-279 -1057h-217l-194 776l-195 -776h-217l-279 1057h219l177 -719l180 719h229zM428 1434h277l137 -265h-172z" />
    <glyph glyph-name="Wacute" unicode="&#x1e82;" horiz-adv-x="1523" 
d="M1010 0l-248 903l-248 -903h-207l-264 1434h215l182 -1004l219 799h205l219 -799l183 1004h215l-264 -1434h-207zM780 1749h281l-262 -223h-187z" />
    <glyph glyph-name="wacute" unicode="&#x1e83;" horiz-adv-x="1409" 
d="M819 1057l180 -719l177 719h219l-279 -1057h-217l-194 776l-195 -776h-217l-279 1057h219l177 -719l180 719h229zM705 1434h276l-242 -265h-172z" />
    <glyph glyph-name="Wdieresis" unicode="&#x1e84;" horiz-adv-x="1523" 
d="M1010 0l-248 903l-248 -903h-207l-264 1434h215l182 -1004l219 799h205l219 -799l183 1004h215l-264 -1434h-207zM676 1747v-219h-219v219h219zM1067 1747v-219h-219v219h219z" />
    <glyph glyph-name="wdieresis" unicode="&#x1e85;" horiz-adv-x="1409" 
d="M819 1057l180 -719l177 719h219l-279 -1057h-217l-194 776l-195 -776h-217l-279 1057h219l177 -719l180 719h229zM614 1411v-219h-215v219h215zM1010 1411v-219h-215v219h215z" />
    <glyph glyph-name="uni1ECA" unicode="&#x1eca;" horiz-adv-x="522" 
d="M371 1434v-1434h-219v1434h219zM371 -100v-219h-219v219h219z" />
    <glyph glyph-name="uni1ECB" unicode="&#x1ecb;" horiz-adv-x="497" 
d="M356 1434v-220h-215v220h215zM356 1057v-1057h-215v1057h215zM356 -100v-219h-215v219h215z" />
    <glyph glyph-name="uni1ECC" unicode="&#x1ecc;" horiz-adv-x="1245" 
d="M918 485v463q0 72 -25.5 129.5t-68.5 91t-94.5 51t-106.5 17.5t-106.5 -17.5t-94.5 -51t-68.5 -91t-25.5 -129.5v-463q0 -73 25.5 -130t68.5 -90.5t94 -50.5t107 -17t107 17t94 50.5t68.5 90.5t25.5 130zM109 485v463q0 231 141.5 368.5t372.5 137.5t372.5 -137.5
t141.5 -368.5v-463q0 -230 -141 -367.5t-373 -137.5t-373 137.5t-141 367.5zM733 -100v-219h-219v219h219z" />
    <glyph glyph-name="uni1ECD" unicode="&#x1ecd;" horiz-adv-x="1105" 
d="M778 422v221q0 118 -60.5 177t-164.5 59t-164.5 -59t-60.5 -177v-221q0 -118 60.5 -177t164.5 -59t164.5 59t60.5 177zM113 418v229q0 101 28.5 179.5t73 126t104.5 78.5t117 42.5t117 11.5t117 -11.5t117 -42.5t104.5 -78.5t73 -126t28.5 -179.5v-229
q0 -101 -28.5 -179.5t-73 -126t-104.5 -78.5t-117 -42.5t-117 -11.5t-117 11.5t-117 42.5t-104.5 78.5t-73 126t-28.5 179.5zM662 -100v-219h-216v219h216z" />
    <glyph glyph-name="uni1EE4" unicode="&#x1ee4;" horiz-adv-x="1294" 
d="M942 485v949h219v-949q0 -230 -141 -367.5t-373 -137.5t-373 137.5t-141 367.5v949h219v-949q0 -73 25.5 -130t68.5 -90.5t94 -50.5t107 -17t107 17t94 50.5t68.5 90.5t25.5 130zM758 -100v-219h-219v219h219z" />
    <glyph glyph-name="uni1EE5" unicode="&#x1ee5;" 
d="M342 1057v-635q0 -117 59 -175.5t160 -58.5t160 58.5t59 175.5v635h215v-1057h-215v100q-26 -50 -94 -85t-151 -35q-56 0 -112 15.5t-110 49.5t-95 84t-66 124.5t-25 164.5v639h215zM670 -100v-219h-215v219h215z" />
    <glyph glyph-name="Ygrave" unicode="&#x1ef2;" horiz-adv-x="1216" 
d="M1223 1434l-506 -887v-547h-219v547l-504 887h242l372 -660l373 660h242zM309 1749h281l168 -223h-187z" />
    <glyph glyph-name="ygrave" unicode="&#x1ef3;" horiz-adv-x="974" 
d="M975 1057l-469 -1301q-47 -133 -234 -133h-110v207h43q32 0 52 3.5t33 8t23.5 21t16.5 29t18 45.5l29 77l-377 1043h223l264 -752l265 752h223zM211 1434h276l138 -265h-172z" />
    <glyph glyph-name="endash" unicode="&#x2013;" horiz-adv-x="1081" 
d="M100 668h881v-187h-881v187z" />
    <glyph glyph-name="emdash" unicode="&#x2014;" horiz-adv-x="1705" 
d="M100 668h1506v-187h-1506v187z" />
    <glyph glyph-name="quoteleft" unicode="&#x2018;" horiz-adv-x="528" 
d="M401 1221v-275h-274v275l80 213h162l-80 -213h112z" />
    <glyph glyph-name="quoteright" unicode="&#x2019;" horiz-adv-x="528" 
d="M127 1159v275h274v-275l-79 -213h-162l80 213h-113z" />
    <glyph glyph-name="quotesinglbase" unicode="&#x201a;" horiz-adv-x="528" 
d="M127 0v274h274v-274l-79 -213h-162l80 213h-113z" />
    <glyph glyph-name="quotedblleft" unicode="&#x201c;" horiz-adv-x="940" 
d="M401 1221v-275h-274v275l80 213h162l-80 -213h112zM813 1221v-275h-274v275l79 213h162l-80 -213h113z" />
    <glyph glyph-name="quotedblright" unicode="&#x201d;" horiz-adv-x="940" 
d="M539 1159v275h274v-275l-80 -213h-162l80 213h-112zM127 1159v275h274v-275l-79 -213h-162l80 213h-113z" />
    <glyph glyph-name="quotedblbase" unicode="&#x201e;" horiz-adv-x="940" 
d="M127 0v274h274v-274l-79 -213h-162l80 213h-113zM539 0v274h274v-274l-80 -213h-162l80 213h-112z" />
    <glyph glyph-name="dagger" unicode="&#x2020;" horiz-adv-x="1222" 
d="M172 1057h342v377h195v-377h342v-187h-342v-1048h-195v1048h-342v187z" />
    <glyph glyph-name="daggerdbl" unicode="&#x2021;" horiz-adv-x="1222" 
d="M172 1057h342v377h195v-377h342v-187h-342v-485h342v-186h-342v-377h-195v377h-342v186h342v485h-342v187z" />
    <glyph glyph-name="bullet" unicode="&#x2022;" horiz-adv-x="1638" 
d="M475 610q0 142 100.5 243t243.5 101t243.5 -101t100.5 -243t-100.5 -243t-243.5 -101t-243.5 101t-100.5 243z" />
    <glyph glyph-name="ellipsis" unicode="&#x2026;" horiz-adv-x="1708" 
d="M717 0v274h274v-274h-274zM1286 0v274h275v-274h-275zM150 0v274h274v-274h-274z" />
    <glyph glyph-name="perthousand" unicode="&#x2030;" horiz-adv-x="2461" 
d="M2052 141q53 0 81 30.5t28 80.5v328q0 49 -28 79.5t-81 30.5t-80.5 -30t-27.5 -80v-328q0 -50 27.5 -80.5t80.5 -30.5zM2052 -12q-77 0 -133.5 24t-88 67t-46.5 94t-15 112v262q0 61 15 112t46.5 94t88 67t133.5 24t133.5 -24t88 -67t46.5 -94t15 -112v-262
q0 -61 -15 -112t-46.5 -94t-88 -67t-133.5 -24zM1292 1434h195l-985 -1434h-195zM410 743q53 0 80.5 30.5t27.5 80.5v328q0 50 -27.5 80t-80.5 30t-81 -30.5t-28 -79.5v-328q0 -50 28 -80.5t81 -30.5zM410 590q-77 0 -133.5 24t-88 67t-46.5 94t-15 112v262q0 61 15 112
t46.5 94t88 67t133.5 24t133.5 -24t88 -67t46 -94t14.5 -112v-262q0 -61 -14.5 -112t-46 -94t-88 -67t-133.5 -24zM1382 141q53 0 81 30.5t28 80.5v328q0 49 -28 79.5t-81 30.5t-80.5 -30t-27.5 -80v-328q0 -50 27.5 -80.5t80.5 -30.5zM1382 -12q-77 0 -133.5 24t-88 67
t-46 94t-14.5 112v262q0 61 14.5 112t46 94t88 67t133.5 24t133.5 -24t88 -67t46.5 -94t15 -112v-262q0 -61 -15 -112t-46.5 -94t-88 -67t-133.5 -24z" />
    <glyph glyph-name="guilsinglleft" unicode="&#x2039;" horiz-adv-x="577" 
d="M457 154l-353 309v192l353 310v-258l-168 -148l168 -147v-258z" />
    <glyph glyph-name="guilsinglright" unicode="&#x203a;" horiz-adv-x="577" 
d="M473 463l-352 -309v258l168 147l-168 148v258l352 -310v-192z" />
    <glyph glyph-name="fraction" unicode="&#x2044;" horiz-adv-x="233" 
d="M512 1434h195l-986 -1434h-194z" />
    <glyph glyph-name="uni2074" unicode="&#x2074;" horiz-adv-x="630" 
d="M354 821v180h-354v152l354 500h174v-500h86v-152h-86v-180h-174zM205 1153h149v211z" />
    <glyph glyph-name="Euro" unicode="&#x20ac;" horiz-adv-x="1226" 
d="M242 516h-158l35 135h123v133h-164l35 136h129v28q0 231 141.5 368.5t372.5 137.5q229 0 368 -133l-149 -162q-85 88 -219 88q-57 0 -109 -18.5t-95 -54t-69 -94.5t-26 -132v-28h532l-35 -136h-497v-133h463l-35 -135h-428v-31q0 -73 26 -132t69 -94.5t95 -54t109 -18.5
q134 0 219 88l149 -161q-139 -133 -368 -133q-232 0 -373 137.5t-141 367.5v31z" />
    <glyph glyph-name="uni2113" unicode="&#x2113;" horiz-adv-x="710" 
d="M143 283v71l-98 -78l-45 58l143 115v677q0 163 77 245.5t200 82.5q229 0 229 -307q0 -152 -81 -328.5t-210 -290.5v-258q0 -99 36 -139.5t108 -40.5q40 0 129 19l18 -64q-120 -65 -221 -65q-122 0 -203.5 77.5t-81.5 225.5zM358 1061v-432q95 102 158.5 244t63.5 268
q0 69 -32 106t-79 37q-64 0 -87.5 -53t-23.5 -170z" />
    <glyph glyph-name="trademark" unicode="&#x2122;" horiz-adv-x="1540" 
d="M233 602v666h-231v166h637v-166h-231v-666h-175zM721 602v832h168l201 -418l200 418h170v-832h-168v508l-135 -285h-133l-135 285v-508h-168z" />
    <glyph glyph-name="arrowup" unicode="&#x2191;" horiz-adv-x="1638" 
d="M725 0v1102l-377 -383l-133 131l604 604l604 -604l-133 -131l-379 381v-1100h-186z" />
    <glyph glyph-name="arrowdown" unicode="&#x2193;" horiz-adv-x="1638" 
d="M725 332v1102h186v-1100l379 381l133 -131l-604 -604l-604 604l133 131z" />
    <glyph glyph-name="minus" unicode="&#x2212;" horiz-adv-x="1142" 
d="M131 668h881v-187h-881v187z" />
    <glyph glyph-name="one.numerator" horiz-adv-x="618" 
d="M279 602v600l-158 -137v229l158 140h174v-832h-174z" />
    <glyph glyph-name="two.numerator" horiz-adv-x="745" 
d="M80 602v154l338 315q34 34 44.5 57t10.5 54q0 50 -27.5 80t-80.5 30q-54 0 -82.5 -30.5t-28.5 -79.5v-13h-174q2 55 18.5 102.5t48.5 88t87.5 63.5t130.5 23q96 0 161.5 -39t93 -96.5t27.5 -126.5q0 -81 -28.5 -135.5t-94.5 -114.5l-192 -178h315v-154h-567z" />
    <glyph glyph-name="three.numerator" horiz-adv-x="739" 
d="M362 590q-69 0 -122.5 21t-85.5 57.5t-50 79t-24 92.5h172q5 -43 35.5 -70t79.5 -27q47 0 75.5 26t28.5 69q0 47 -32 73.5t-87 26.5h-67v156h67q56 0 87.5 21.5t31.5 62.5q0 114 -109 114q-49 0 -77 -26.5t-33 -69.5h-172q31 250 282 250q74 0 130.5 -23t88.5 -61t48 -82
t16 -92q0 -112 -82 -176q36 -25 59 -82.5t23 -106.5q0 -104 -71 -168.5t-212 -64.5z" />
    <glyph glyph-name="four.numerator" horiz-adv-x="651" 
d="M334 602v180h-354v152l354 500h174v-500h86v-152h-86v-180h-174zM184 934h150v211z" />
    <glyph glyph-name="five.numerator" horiz-adv-x="735" 
d="M389 590q-63 0 -112 14.5t-79.5 37t-51.5 56.5t-31 67.5t-15 74.5h172q5 -41 33.5 -69t73.5 -28q58 0 85.5 28t27.5 73v43q0 49 -28 79.5t-81 30.5q-77 0 -98 -59h-174v496h522v-154h-348v-147q52 18 108 18q75 0 129.5 -24t85 -67t44.5 -94t14 -112v-31
q0 -102 -73.5 -167.5t-203.5 -65.5z" />
    <glyph glyph-name="six.numerator" horiz-adv-x="737" 
d="M373 590q-76 0 -132.5 23.5t-88.5 64.5t-47 90.5t-15 108.5v272q0 61 15 112t46.5 94t88 67t133.5 24q71 0 124 -21t84.5 -58t48.5 -78.5t23 -92.5h-172q-5 44 -32 70t-76 26q-53 0 -81 -30.5t-28 -79.5v-74q13 13 44.5 24t70.5 11q74 0 129.5 -24t86.5 -65.5t45.5 -90
t14.5 -103.5v2q-2 -56 -18 -102.5t-48 -86t-87 -61.5t-129 -22zM373 743q53 0 80.5 30.5t27.5 80.5v25q0 50 -27.5 80t-80.5 30q-52 0 -79.5 -28.5t-29.5 -73.5v-33q0 -50 28 -80.5t81 -30.5z" />
    <glyph glyph-name="seven.numerator" horiz-adv-x="593" 
d="M164 602l260 678h-379v154h559v-154l-260 -678h-180z" />
    <glyph glyph-name="eight.numerator" horiz-adv-x="694" 
d="M346 590q-132 0 -207.5 74t-75.5 184q0 49 20.5 97.5t57.5 76.5q-69 66 -69 170q0 110 70 182t204 72t204.5 -72t70.5 -182q0 -105 -68 -170q37 -28 57.5 -76.5t20.5 -97.5q0 -111 -75.5 -184.5t-209.5 -73.5zM346 743q48 0 78.5 30t30.5 73q0 45 -30 73.5t-79 28.5
q-47 0 -77.5 -29t-30.5 -73q0 -42 31 -72.5t77 -30.5zM348 1094q46 0 72 30.5t26 69.5t-26 68.5t-72 29.5q-48 0 -75 -29.5t-27 -68.5t27 -69.5t75 -30.5z" />
    <glyph glyph-name="nine.numerator" horiz-adv-x="737" 
d="M365 590q-71 0 -124.5 21t-84.5 58t-48.5 78.5t-23.5 92.5h172q5 -44 32.5 -70.5t76.5 -26.5q53 0 80.5 30.5t27.5 80.5v74q-13 -13 -44.5 -24t-70.5 -11q-72 0 -127 23t-86.5 62t-47 86t-15.5 101v-4v10v-6v6q2 56 18 103t48 87t87.5 62.5t129.5 22.5q76 0 132.5 -24
t88 -65.5t46.5 -91t15 -106.5v-272q0 -61 -14.5 -112t-46 -94t-88 -67t-133.5 -24zM365 1047q52 0 79 28.5t29 73.5v33q0 50 -27.5 80t-80.5 30t-81 -30.5t-28 -79.5v-25q0 -49 28 -79.5t81 -30.5z" />
    <glyph glyph-name="zero.numerator" horiz-adv-x="743" 
d="M373 743q53 0 80.5 30.5t27.5 80.5v328q0 50 -27.5 80t-80.5 30t-81 -30.5t-28 -79.5v-328q0 -50 28 -80.5t81 -30.5zM373 590q-77 0 -133.5 24t-88 67t-46.5 94t-15 112v262q0 61 15 112t46.5 94t88 67t133.5 24t133.5 -24t88 -67t46 -94t14.5 -112v-262
q0 -61 -14.5 -112t-46 -94t-88 -67t-133.5 -24z" />
    <glyph glyph-name="one.denominator" horiz-adv-x="618" 
d="M279 0v600l-158 -137v229l158 139h174v-831h-174z" />
    <glyph glyph-name="two.denominator" horiz-adv-x="745" 
d="M80 0v154l338 315q34 34 44.5 57t10.5 54q0 50 -27.5 80t-80.5 30q-54 0 -82.5 -30.5t-28.5 -79.5v-13h-174q2 55 18.5 102.5t48.5 88t87.5 63.5t130.5 23q96 0 161.5 -39t93 -96.5t27.5 -126.5q0 -81 -28.5 -135.5t-94.5 -114.5l-192 -178h315v-154h-567z" />
    <glyph glyph-name="three.denominator" horiz-adv-x="739" 
d="M362 -12q-69 0 -122.5 21t-85.5 57.5t-50 79t-24 92.5h172q5 -43 35.5 -70t79.5 -27q47 0 75.5 26t28.5 69q0 47 -32 73.5t-87 26.5h-67v156h67q56 0 87.5 21t31.5 62q0 115 -109 115q-49 0 -77 -26.5t-33 -69.5h-172q31 250 282 250q74 0 130.5 -23t88.5 -61t48 -82
t16 -92q0 -112 -82 -176q36 -25 59 -82.5t23 -106.5q0 -104 -71 -168.5t-212 -64.5z" />
    <glyph glyph-name="four.denominator" horiz-adv-x="651" 
d="M334 0v180h-354v152l354 499h174v-499h86v-152h-86v-180h-174zM184 332h150v211z" />
    <glyph glyph-name="five.denominator" horiz-adv-x="735" 
d="M389 -12q-63 0 -112 14.5t-79.5 37t-51.5 56.5t-31 67.5t-15 74.5h172q5 -41 33.5 -69t73.5 -28q58 0 85.5 28t27.5 73v43q0 49 -28 79.5t-81 30.5q-77 0 -98 -59h-174v495h522v-153h-348v-148q55 19 108 19q75 0 129.5 -24t85 -67t44.5 -94t14 -112v-31
q0 -102 -73.5 -167.5t-203.5 -65.5z" />
    <glyph glyph-name="six.denominator" horiz-adv-x="737" 
d="M373 -12q-76 0 -132.5 23t-88.5 64t-47 90.5t-15 108.5v273q0 61 15 112t46.5 94t88 67t133.5 24q71 0 124 -21t84.5 -58t48.5 -78.5t23 -92.5h-172q-5 44 -32 70t-76 26q-53 0 -81 -30.5t-28 -79.5v-74q13 13 44.5 24t70.5 11q74 0 129.5 -24t86.5 -65.5t45.5 -90
t14.5 -103.5v2q-2 -56 -18 -102.5t-48 -86t-87 -61.5t-129 -22zM373 141q53 0 80.5 30.5t27.5 80.5v24q0 50 -27.5 80.5t-80.5 30.5q-52 0 -79.5 -28.5t-29.5 -73.5v-33q0 -50 28 -80.5t81 -30.5z" />
    <glyph glyph-name="seven.denominator" horiz-adv-x="593" 
d="M164 0l260 678h-379v153h559v-153l-260 -678h-180z" />
    <glyph glyph-name="eight.denominator" horiz-adv-x="694" 
d="M346 -12q-132 0 -207.5 74t-75.5 184q0 49 20.5 97.5t57.5 76.5q-69 66 -69 170q0 110 70 182t204 72t204.5 -72t70.5 -182q0 -105 -68 -170q37 -28 57.5 -76.5t20.5 -97.5q0 -111 -75.5 -184.5t-209.5 -73.5zM346 141q48 0 78.5 30t30.5 73q0 45 -30 73.5t-79 28.5
q-47 0 -77.5 -29t-30.5 -73q0 -42 31 -72.5t77 -30.5zM348 492q46 0 72 30.5t26 69.5t-26 68.5t-72 29.5q-48 0 -75 -29.5t-27 -68.5t27 -69.5t75 -30.5z" />
    <glyph glyph-name="nine.denominator" horiz-adv-x="737" 
d="M365 -12q-71 0 -124.5 21t-84.5 58t-48.5 78.5t-23.5 92.5h172q5 -44 32.5 -70.5t76.5 -26.5q53 0 80.5 30.5t27.5 80.5v74q-13 -13 -44.5 -24t-70.5 -11q-72 0 -127 23t-86.5 62t-47 86t-15.5 101v-4v10v-6v6q2 56 18 103t48 87t87.5 62.5t129.5 22.5q76 0 132.5 -24
t88 -65.5t46.5 -91t15 -106.5v-272q0 -61 -14.5 -112t-46 -94t-88 -67t-133.5 -24zM365 444q52 0 79 29t29 74v33q0 50 -27.5 80t-80.5 30t-81 -30.5t-28 -79.5v-25q0 -50 28 -80.5t81 -30.5z" />
    <glyph glyph-name="zero.denominator" horiz-adv-x="743" 
d="M373 141q53 0 80.5 30.5t27.5 80.5v328q0 50 -27.5 80t-80.5 30t-81 -30.5t-28 -79.5v-328q0 -50 28 -80.5t81 -30.5zM373 -12q-77 0 -133.5 24t-88 67t-46.5 94t-15 112v262q0 61 15 112t46.5 94t88 67t133.5 24t133.5 -24t88 -67t46 -94t14.5 -112v-262
q0 -61 -14.5 -112t-46 -94t-88 -67t-133.5 -24z" />
    </font>
</defs>
</svg>
